<?xml version="1.0" encoding="UTF-8" standalone="no"?>
<!-- Created with Inkscape (http://www.inkscape.org/) -->

<svg
   width="195.19077mm"
   height="201.55566mm"
   viewBox="0 0 195.19077 201.55566"
   version="1.1"
   id="svg1"
   xml:space="preserve"
   inkscape:version="1.4.2 (f4327f4, 2025-05-13)"
   sodipodi:docname="logo-2.svg"
   xmlns:inkscape="http://www.inkscape.org/namespaces/inkscape"
   xmlns:sodipodi="http://sodipodi.sourceforge.net/DTD/sodipodi-0.dtd"
   xmlns="http://www.w3.org/2000/svg"
   xmlns:svg="http://www.w3.org/2000/svg"><sodipodi:namedview
     id="namedview1"
     pagecolor="#ffffff"
     bordercolor="#000000"
     borderopacity="0.25"
     inkscape:showpageshadow="2"
     inkscape:pageopacity="0.0"
     inkscape:pagecheckerboard="0"
     inkscape:deskcolor="#d1d1d1"
     inkscape:document-units="mm"
     inkscape:zoom="0.68862935"
     inkscape:cx="292.61024"
     inkscape:cy="373.9312"
     inkscape:window-width="1920"
     inkscape:window-height="991"
     inkscape:window-x="-9"
     inkscape:window-y="-9"
     inkscape:window-maximized="1"
     inkscape:current-layer="layer1" /><defs
     id="defs1" /><g
     inkscape:label="Capa 1"
     inkscape:groupmode="layer"
     id="layer1"
     transform="translate(-185.72104,-231.74362)"><path
       style="fill:#ffffff"
       d="m 249.35458,433.16434 c -9.18062,-0.63603 -15.94755,-7.42104 -17.0937,-17.13933 -0.20731,-1.75781 -0.0792,-5.05217 0.25772,-6.62536 1.50064,-7.00784 6.04846,-12.15889 12.40238,-14.04741 2.02684,-0.60242 3.37644,-0.78403 5.82205,-0.78344 3.80984,9.3e-4 6.98335,0.75431 9.58988,2.27661 4.36173,2.54739 7.28792,6.80684 8.39729,12.22336 0.31859,1.55557 0.46247,5.12364 0.23516,5.83226 -0.23497,0.73253 -0.71757,1.29867 -1.36049,1.59598 -0.57319,0.26507 -0.61765,0.26609 -13.0875,0.30063 l -12.51235,0.0347 0.0744,0.52695 c 0.4585,3.24854 2.36468,5.83628 5.16834,7.01633 1.11999,0.4714 2.24027,0.68207 3.64031,0.68459 3.14988,0.006 5.45038,-1.05582 7.14593,-3.29723 1.11022,-1.46763 1.18242,-1.49059 4.86248,-1.54624 3.48505,-0.0527 3.94621,-0.005 4.47238,0.46543 1.2551,1.12142 -0.0982,4.62859 -2.86031,7.41267 -2.76087,2.78284 -7.323,4.71905 -11.83107,5.02122 -0.54913,0.0368 -1.22306,0.0834 -1.49763,0.10356 -0.27456,0.0201 -1.09592,-0.005 -1.82525,-0.0552 z m 9.9998,-23.8608 c 0,-0.46527 -0.48282,-2.06379 -0.83189,-2.7542 -1.01595,-2.00941 -2.94138,-3.52673 -5.28342,-4.16358 -1.01167,-0.27509 -3.84042,-0.30799 -4.86729,-0.0566 -0.37752,0.0924 -1.20477,0.41605 -1.83833,0.71918 -1.57627,0.75417 -2.77226,1.92116 -3.5073,3.42225 -0.50684,1.03506 -0.89448,2.26171 -0.89448,2.83048 v 0.28578 h 8.61136 8.61135 z m 26.77009,23.8665 c -7.2639,-0.46019 -13.42319,-4.31598 -14.66776,-9.18219 -0.45069,-1.76218 -0.24708,-2.91491 0.6089,-3.4472 0.4411,-0.2743 0.5515,-0.2832 3.51307,-0.2832 3.87223,0 3.8244,-0.0172 5.05247,1.81576 0.65538,0.97819 1.00681,1.36741 1.64732,1.82447 1.45603,1.039 3.29798,1.53906 5.66906,1.53906 2.34122,0 4.23345,-0.50586 5.3155,-1.42103 0.61228,-0.51785 1.06095,-1.54358 1.06095,-2.42548 0,-1.43509 -0.75275,-2.18109 -2.89541,-2.86942 -0.44617,-0.14333 -2.93725,-0.8006 -5.53574,-1.4606 -5.2591,-1.33578 -6.3456,-1.68163 -8.06771,-2.56804 -2.7785,-1.43015 -4.4526,-3.25543 -5.31205,-5.79173 -0.44826,-1.32283 -0.56068,-3.51707 -0.25698,-5.01585 0.24775,-1.22271 0.77565,-2.53632 1.40667,-3.50028 0.61482,-0.93923 2.02326,-2.34652 3.02384,-3.02137 4.35895,-2.93993 11.98058,-3.70778 17.84785,-1.7981 0.52261,0.17009 1.62413,0.64041 2.44782,1.04514 3.65289,1.79489 6.05408,4.86029 6.05245,7.72663 -5.4e-4,0.93626 -0.2899,1.55775 -0.81894,1.75889 -0.44123,0.16776 -6.18262,0.15786 -6.62941,-0.0114 -0.47217,-0.1789 -0.8879,-0.5819 -1.17226,-1.13637 -0.35447,-0.69117 -1.51628,-1.88322 -2.19601,-2.25318 -2.12506,-1.1566 -6.39628,-1.30042 -8.40408,-0.28299 -1.36583,0.69212 -1.92334,1.50557 -1.924,2.80724 -6.5e-4,1.27248 0.42287,1.88349 1.73923,2.50921 0.82648,0.39286 2.09015,0.76175 5.92729,1.73029 6.32737,1.5971 6.86633,1.76059 8.67375,2.63113 2.28245,1.09934 4.00929,2.73193 4.94335,4.67358 0.77179,1.60433 0.9206,2.34022 0.92118,4.55528 4.4e-4,1.648 -0.0419,2.08123 -0.2862,2.92579 -0.85291,2.9491 -2.96742,5.34701 -6.08601,6.90172 -3.07721,1.53409 -7.40704,2.28978 -11.59814,2.02426 z m 74.67211,-0.003 c -4.3258,-0.31048 -8.09721,-1.96311 -11.15831,-4.88953 -3.58452,-3.42682 -5.58505,-7.99216 -5.91702,-13.50301 -0.34478,-5.72341 1.51458,-11.00894 5.21383,-14.8212 1.48581,-1.53119 2.5976,-2.37975 4.29522,-3.27825 5.30305,-2.80675 12.58787,-2.88402 17.94693,-0.19037 5.55118,2.79021 8.94233,8.27771 9.47971,15.33989 0.22677,2.9801 -0.13383,4.07217 -1.55647,4.71373 -0.4665,0.21038 -1.27831,0.22653 -13.02466,0.25903 l -12.52716,0.0347 0.0837,0.73989 c 0.31352,2.77113 2.1769,5.36059 4.76865,6.6268 1.27289,0.62187 2.3754,0.85839 4.01412,0.86116 3.18429,0.005 5.30605,-0.99118 7.22146,-3.3918 1.10145,-1.38046 1.14893,-1.39455 4.89195,-1.45091 3.45204,-0.052 4.08692,0.0281 4.5127,0.56941 0.75842,0.96418 0.16259,3.17043 -1.50944,5.5891 -2.52165,3.64771 -7.81821,6.34425 -13.2187,6.72983 -0.58345,0.0417 -1.31354,0.0941 -1.62243,0.11647 -0.30888,0.0224 -1.16122,-0.002 -1.89409,-0.0549 z m 10.13104,-23.74774 c 0,-0.49193 -0.5525,-2.20652 -0.96232,-2.98641 -1.52201,-2.89639 -4.63135,-4.50503 -8.30802,-4.2982 -2.46865,0.13887 -4.07218,0.81573 -5.63913,2.38033 -1.19682,1.19503 -1.81001,2.27179 -2.18536,3.83754 -0.13801,0.57572 -0.25133,1.08889 -0.25181,1.14037 -4.8e-4,0.0515 3.90232,0.0936 8.67288,0.0936 7.16663,0 8.67376,-0.0291 8.67376,-0.16723 z M 187.89963,432.3251 c -0.80577,-0.33759 -1.22941,-0.70792 -1.62335,-1.41907 l -0.36804,-0.6644 v -23.27562 -23.27563 l 0.26987,-0.49921 c 0.34937,-0.64626 0.97478,-1.24027 1.60217,-1.52171 0.43407,-0.19472 0.96,-0.22926 4.03056,-0.26466 2.12216,-0.0245 3.89015,0.0132 4.43048,0.0945 1.261,0.18962 2.5264,0.83261 3.2901,1.6718 0.69452,0.76319 0.23955,-0.0233 7.84435,13.56114 3.20861,5.73155 6.40227,11.43502 7.09702,12.67439 0.69476,1.23937 1.82481,3.27339 2.51122,4.52004 0.86729,1.57517 1.31423,2.26788 1.46505,2.27069 0.2049,0.004 0.21884,-0.90023 0.2496,-16.18906 0.0314,-15.61474 0.041,-16.21012 0.26938,-16.66989 0.32032,-0.64498 0.89317,-1.19509 1.57143,-1.50904 l 0.56302,-0.2606 39.81192,-0.0367 c 29.40286,-0.0271 39.94245,3.3e-4 40.31114,0.10487 0.73686,0.20893 1.27363,0.78295 1.44311,1.54323 0.0845,0.3792 0.12403,1.41433 0.098,2.56946 -0.0509,2.26145 -0.17916,2.62088 -1.10244,3.08886 l -0.554,0.2808 h -36.29102 -36.29102 l -7e-4,20.37397 c -4.6e-4,13.65014 -0.0433,20.52739 -0.12979,20.83883 -0.19837,0.71426 -0.8558,1.49374 -1.55526,1.84399 -0.61455,0.30773 -0.67163,0.3125 -4.16462,0.34876 -2.17142,0.0225 -3.78886,-0.0147 -4.18087,-0.0961 -0.85417,-0.17753 -1.84369,-0.6482 -2.50917,-1.19351 -1.07856,-0.8838 -0.83181,-0.47454 -8.80079,-14.59701 -2.24649,-3.98119 -4.68828,-8.30559 -5.42619,-9.60977 -0.7379,-1.30419 -2.29722,-4.07012 -3.46514,-6.14651 -1.16792,-2.0764 -2.17119,-3.77527 -2.2295,-3.77527 -0.0583,0 -0.12232,7.39921 -0.14226,16.4427 -0.028,12.69908 -0.0716,16.54563 -0.19136,16.89481 -0.25574,0.74544 -1.06644,1.55771 -1.84571,1.84927 -0.60916,0.22792 -0.95887,0.25627 -3.08481,0.25009 -1.96034,-0.006 -2.48983,-0.0455 -2.90242,-0.2184 z m 131.21876,0.0334 c -3.13478,-0.48846 -5.09335,-1.48821 -7.05803,-3.60277 -1.83499,-1.97499 -2.6533,-4.0424 -2.9109,-7.35426 -0.065,-0.83511 -0.11938,-5.37946 -0.12094,-10.09854 l -0.003,-8.58016 h -1.28398 c -1.08418,0 -1.37018,-0.0437 -1.83798,-0.28081 -0.94515,-0.47907 -1.05892,-0.81761 -1.05892,-3.15125 0,-2.33364 0.11377,-2.67219 1.05892,-3.15126 0.4678,-0.23711 0.7538,-0.2808 1.83798,-0.2808 h 1.28398 v -5.59869 c 0,-3.07927 0.0359,-5.86083 0.0799,-6.18122 0.12369,-0.90241 0.73658,-1.81242 1.47622,-2.19186 0.58518,-0.3002 0.74659,-0.32044 2.86989,-0.35985 1.23741,-0.023 2.54457,-0.005 2.9048,0.0401 0.90703,0.11333 1.73589,0.69191 2.14784,1.4993 l 0.31838,0.62401 0.0367,6.08411 0.0367,6.08412 h 3.46247 c 3.34525,0 3.48101,0.01 4.01009,0.2808 0.89563,0.45925 1.0029,0.79747 1.0029,3.16205 0,1.88058 -0.0183,2.03839 -0.28081,2.42412 -0.15444,0.22692 -0.43925,0.53008 -0.63291,0.67367 -0.33562,0.24885 -0.52408,0.26279 -4.02487,0.2976 l -3.67277,0.0365 v 8.3474 c 0,5.27853 0.0494,8.70248 0.13434,9.31324 0.21105,1.51739 0.54149,2.24593 1.41477,3.11921 0.99423,0.99423 1.73793,1.28036 3.71969,1.4311 1.65244,0.1257 2.14926,0.28719 2.6258,0.85352 0.44725,0.53152 0.49081,0.85721 0.44452,3.3234 -0.0376,2.00427 -0.056,2.14151 -0.33943,2.53895 -0.56481,0.79192 -0.98854,0.88598 -3.94362,0.87544 -1.52842,-0.005 -3.06981,-0.0793 -3.69795,-0.17718 z m 12.81224,-0.007 c -0.60521,-0.22155 -1.12374,-0.69791 -1.48158,-1.36105 l -0.26937,-0.49921 -0.0383,-23.02601 c -0.0276,-16.56174 6.5e-4,-23.20738 0.10049,-23.67202 0.1766,-0.82187 0.72247,-1.577 1.40258,-1.94026 0.51032,-0.27257 0.65207,-0.28419 3.46494,-0.28419 2.81287,0 2.95462,0.0116 3.46493,0.28419 0.60983,0.32572 1.22082,1.10087 1.40403,1.78124 0.0829,0.30778 0.11465,8.37339 0.0932,23.662 l -0.0325,23.19505 -0.27345,0.51103 c -0.3535,0.66061 -1.03123,1.25063 -1.62638,1.41591 -0.74527,0.20696 -5.60365,0.15479 -6.2086,-0.0667 z m 14.85617,-43.47428 c -0.60059,-0.39728 -0.6856,-0.68258 -0.69022,-2.31637 -0.003,-1.18227 0.0417,-1.58961 0.21399,-1.93444 0.28745,-0.57542 1.04686,-0.95158 2.12237,-1.05127 0.46282,-0.0429 7.05966,-0.69441 14.65965,-1.4478 7.59999,-0.75339 14.04627,-1.3698 14.32507,-1.3698 1.02666,0 1.85657,0.63924 2.12523,1.63695 0.0827,0.30702 0.12035,1.46619 0.0969,2.98083 -0.0421,2.71444 -0.0652,2.80269 -0.89765,3.42426 -0.34324,0.25628 -0.40739,0.25744 -15.96698,0.28853 -15.27943,0.0305 -15.63039,0.0259 -15.98834,-0.21089 z m 6.57696,-17.05506 c -0.67333,-0.24801 -1.44444,-1.11529 -1.77343,-1.99458 -0.32283,-0.86286 -0.88706,-3.68633 -2.05558,-10.28642 -1.77097,-10.00285 -4.3164,-25.76509 -4.3164,-26.72876 0,-0.23552 0.0674,-0.49561 0.14976,-0.57798 0.25293,-0.25293 0.70357,-0.17194 0.92518,0.16627 0.36863,0.56261 5.18582,20.02087 7.22883,29.1997 0.45834,2.05924 0.91278,3.89798 1.00987,4.0861 0.27528,0.53337 0.71315,0.76194 1.2628,0.65918 0.38191,-0.0714 0.76476,-0.3798 2.07014,-1.66762 0.88087,-0.86902 1.68116,-1.73168 1.77843,-1.91704 0.25771,-0.49108 0.21127,-1.59586 -0.13273,-3.15745 -0.95649,-4.34203 -2.94316,-14.5077 -2.91088,-14.89482 0.0321,-0.38545 0.0879,-0.46166 0.3607,-0.49337 0.17748,-0.0206 0.38906,0.0425 0.47018,0.14021 0.0811,0.0978 1.3472,3.65277 2.81351,7.90005 1.4663,4.24728 2.75011,7.9189 2.85291,8.15914 0.27277,0.63752 0.86393,1.1371 1.48835,1.25779 0.76795,0.14844 3.19811,0.13765 3.75375,-0.0167 0.25917,-0.072 0.55948,-0.2681 0.6709,-0.43815 0.41571,-0.63445 0.56476,-0.15565 -4.95103,-15.90406 -0.97367,-2.77997 -1.97057,-5.64419 -2.21534,-6.36492 l -0.44503,-1.31042 -2.25515,-1.68483 c -11.79838,-8.81461 -22.15355,-18.15888 -30.84734,-27.83595 -9.92886,-11.0518 -16.9173,-22.3781 -20.32602,-32.94276 -0.76406,-2.36804 -1.81324,-6.64312 -1.81417,-7.39216 -6.6e-4,-0.53113 0.0317,-0.59856 0.32184,-0.67139 0.20469,-0.0514 0.38271,-0.018 0.48714,0.0912 0.0905,0.0947 0.66905,1.2954 1.28563,2.66822 6.26907,13.95822 13.76023,25.80196 22.64995,35.81027 10.15161,11.42897 22.34496,21.6143 41.74794,34.87283 1.73584,1.18614 3.20595,2.13862 3.26692,2.11662 0.11855,-0.0428 -0.0714,-0.56774 -1.68552,-4.65768 -5.44642,-13.80059 -13.71211,-29.68287 -23.63075,-45.40574 -9.33493,-14.79759 -15.33735,-22.71544 -22.68241,-29.92058 -2.53113,-2.48291 -4.76939,-4.38749 -8.27715,-7.04317 -3.91071,-2.96076 -5.10119,-4.17303 -9.62087,-9.79698 -0.85632,-1.06553 -2.56366,-2.94472 -3.80105,-4.18363 -2.94586,-2.94947 -4.54878,-4.08325 -7.0359,-4.97667 -1.21995,-0.43822 -1.80021,-0.56052 -3.36132,-0.70843 -3.72314,-0.35277 -7.14629,0.86087 -9.57925,3.39621 -1.46767,1.52943 -2.18411,2.78256 -2.98695,5.2245 -0.56775,1.72687 -0.71664,2.03182 -2.16319,4.43048 l -1.12896,1.87203 2.30119,0.034 c 1.26565,0.0187 2.30118,0.0653 2.30118,0.10364 0,0.0383 -0.59678,1.07832 -1.32618,2.31112 -0.72941,1.2328 -1.30442,2.26321 -1.27782,2.28982 0.0266,0.0266 0.44086,-0.0352 0.92058,-0.13733 1.59791,-0.3402 3.47616,-0.54023 5.09588,-0.54269 4.42392,-0.007 7.21882,1.54788 8.51421,4.73585 0.68154,1.67728 1.25975,4.52484 1.80012,8.86516 0.98014,7.87251 1.63029,10.95582 3.06846,14.55179 2.57087,6.4282 6.73589,12.64301 12.54795,18.72336 1.89855,1.98618 1.95509,2.07098 1.61063,2.41544 -0.13886,0.13886 -0.30519,0.25246 -0.36963,0.25246 -0.13536,0 -2.54603,-1.8601 -4.18851,-3.23192 -1.45738,-1.21721 -5.61811,-5.37383 -6.82141,-6.81466 -3.60608,-4.31791 -6.10583,-8.68789 -7.38893,-12.91703 -0.86307,-2.84472 -1.40382,-5.61342 -2.32757,-11.91739 -1.16222,-7.93134 -1.58309,-9.26405 -3.2494,-10.28934 -2.32463,-1.43036 -7.0439,-1.43428 -13.14829,-0.0109 -0.60972,0.14217 -1.12378,0.24309 -1.14235,0.22427 -0.0186,-0.0188 0.63403,-1.29785 1.45022,-2.84227 l 1.484,-2.80806 -3.11728,-0.0333 c -1.7145,-0.0183 -3.11728,-0.0662 -3.11728,-0.10634 0,-0.0401 0.49669,-0.89564 1.10375,-1.90109 2.57169,-4.2594 4.39433,-7.37714 4.61352,-7.89172 0.12906,-0.30299 0.41975,-1.11251 0.64597,-1.79892 0.50016,-1.51762 1.02732,-2.58779 1.84584,-3.7472 2.22192,-3.14729 5.6284,-5.36325 9.51285,-6.18823 1.06128,-0.2254 1.70193,-0.27744 3.36966,-0.27374 2.97768,0.007 4.84783,0.422 7.43736,1.65192 3.52556,1.67449 7.17712,4.95763 11.53021,10.36688 3.25093,4.03968 5.04377,5.85981 8.17491,8.29936 4.8388,3.77001 7.34639,5.98171 10.98462,9.68846 6.61502,6.73961 11.24196,12.88134 19.54412,25.94258 15.11735,23.78312 26.85828,47.74706 28.24916,57.65823 0.25073,1.78666 0.0148,2.52637 -0.85815,2.69013 -0.88753,0.1665 -3.12777,-0.63625 -5.51388,-1.97579 -1.42693,-0.80107 -5.18523,-3.27706 -6.91342,-4.55462 -0.6521,-0.48205 -1.22474,-0.85262 -1.27255,-0.82348 -0.0478,0.0291 -0.011,0.26212 0.0817,0.51774 0.27911,0.76923 6.1756,17.21621 6.65443,18.5611 0.32408,0.91024 0.45953,1.52248 0.50046,2.26203 0.0926,1.67265 -0.33186,2.52107 -1.56375,3.12598 l -0.71865,0.3529 -3.86887,0.0624 -3.86887,0.0624 -0.73408,0.36044 c -0.54889,0.26951 -1.37054,0.96696 -3.25683,2.7645 -1.3875,1.32223 -2.77007,2.53082 -3.07238,2.68574 -0.71002,0.36388 -2.07313,0.44484 -2.82523,0.16781 z M 211.43031,360.69081 c 0,-0.75978 0.0613,-1.09354 0.2808,-1.52883 0.41359,-0.82017 0.87727,-1.00102 2.87945,-1.12308 2.51956,-0.15361 4.05824,-0.5177 6.02793,-1.42636 2.53812,-1.1709 3.91153,-2.73933 4.49536,-5.13368 0.28501,-1.16887 0.2768,-4.21601 -0.0151,-5.60356 -0.58675,-2.78911 -2.24558,-4.45037 -5.98827,-5.99706 -0.71655,-0.29611 -1.6145,-0.63664 -1.99545,-0.75672 -0.38094,-0.12008 -0.69056,-0.2502 -0.68803,-0.28914 0.003,-0.0389 0.76487,-0.51089 1.6941,-1.04876 l 1.68952,-0.97795 0.70834,0.2814 c 3.52128,1.3989 5.74121,3.06315 6.81719,5.11073 0.79819,1.51897 1.08523,2.93103 1.1598,5.70553 0.0355,1.32135 0.11272,2.40245 0.17157,2.40245 0.0588,0 0.71147,-0.46475 1.45028,-1.03278 1.34183,-1.03167 6.4013,-4.81424 8.91196,-6.66279 5.49504,-4.0459 6.80127,-5.00297 6.92801,-5.07612 0.13331,-0.077 2.02503,2.23839 1.90276,2.32885 -0.11317,0.0837 -3.67439,2.87137 -3.73188,2.92123 -0.0342,0.0297 0.19039,0.27337 0.49921,0.54149 2.14098,1.85882 4.98737,3.20392 7.78902,3.68081 0.95225,0.16209 1.69926,0.19603 3.24486,0.14746 1.83921,-0.0578 2.16503,-0.1051 3.87986,-0.56313 5.68564,-1.51864 6.28607,-1.65245 9.18896,-2.04789 1.79017,-0.24385 2.72786,-0.26742 14.02426,-0.35239 12.44939,-0.0936 13.16017,-0.12247 15.66269,-0.63527 3.08652,-0.63248 6.6073,-2.23084 10.20379,-4.63232 7.13515,-4.76433 13.37504,-11.88544 17.50231,-19.97405 0.4871,-0.9546 0.87108,-1.56761 0.96105,-1.53424 0.32668,0.12116 3.02663,1.88415 3.02953,1.9782 0.005,0.17197 -1.85963,3.83241 -2.58759,5.07887 -3.99163,6.83463 -9.86302,13.1689 -16.16816,17.4428 -5.64144,3.824 -9.91615,5.54173 -15.31218,6.15295 -0.86032,0.0975 -5.48987,0.17982 -13.47864,0.23981 -10.39855,0.0781 -12.37695,0.12183 -13.60345,0.30073 -1.72538,0.25168 -3.51406,0.64423 -6.25473,1.37271 -4.59834,1.22224 -6.15438,1.43504 -8.90875,1.21834 -4.49297,-0.35349 -8.95284,-2.2385 -12.0243,-5.0822 l -0.85803,-0.79441 -0.48536,0.4091 c -0.44294,0.37334 -1.85333,1.47749 -9.23717,7.23144 -1.36422,1.06309 -3.15433,2.46964 -3.97802,3.12568 -3.70213,2.94858 -6.02085,4.21111 -9.11057,4.96065 -1.36303,0.33067 -3.85101,0.61347 -5.39693,0.61347 h -1.27999 z m -25.52507,-12.33417 c -0.24425,-6.45369 0.29752,-9.00903 2.38896,-11.26798 0.88846,-0.95962 2.48512,-2.10356 3.97896,-2.85077 0.54913,-0.27467 2.48668,-1.13149 4.30568,-1.90406 1.81899,-0.77256 3.89695,-1.65599 4.61768,-1.96316 0.72073,-0.30718 2.48981,-1.03562 3.93127,-1.61875 1.44147,-0.58314 2.6673,-1.1039 2.72407,-1.15726 0.0568,-0.0533 -0.36887,-0.59532 -0.94586,-1.20437 -5.17438,-5.46192 -6.93703,-7.98142 -7.52514,-10.75634 -0.26711,-1.26034 -0.23104,-3.36854 0.0794,-4.64089 0.49032,-2.00954 0.36987,-2.47853 -1.18594,-4.61768 -0.95783,-1.31695 -1.80124,-2.87831 -2.05619,-3.80647 -0.23744,-0.86445 -0.16575,-2.34337 0.17966,-3.70599 0.51421,-2.02856 0.52422,-2.59053 0.0694,-3.89572 -0.45872,-1.31627 -0.5092,-2.35616 -0.152,-3.13129 1.59135,-3.45323 10.49676,-6.51163 20.39002,-7.00258 l 1.718,-0.0852 -0.63789,1.42228 c -0.35084,0.78225 -0.66368,1.48483 -0.69522,1.56129 -0.0325,0.0789 -0.71567,0.20393 -1.57932,0.28909 -1.99889,0.19711 -5.50327,0.79517 -7.42985,1.26799 -3.60278,0.88419 -5.95911,2.04767 -6.58045,3.24922 -0.3879,0.75011 -0.1095,1.85767 0.69818,2.77757 1.82364,2.077 6.85498,4.33644 10.75384,4.82924 1.2928,0.16341 2.16297,-0.0297 4.73534,-1.05059 2.61798,-1.03906 3.66808,-1.25724 5.65291,-1.17451 2.47201,0.10302 5.41168,0.87676 9.68038,2.54792 1.87382,0.73359 6.97584,3.14855 7.53008,3.56425 0.2181,0.16358 0.20703,0.20961 -0.22936,0.9542 -0.25218,0.43029 -0.6361,0.89062 -0.85316,1.02297 -0.71476,0.43583 -1.2096,0.33002 -4.34429,-0.92895 -5.50551,-2.21115 -8.85881,-3.07275 -11.95903,-3.07275 -1.72227,0 -2.64552,0.20409 -4.82955,1.06761 -4.03938,1.59709 -5.86849,1.5511 -10.74325,-0.27016 -2.15921,-0.8067 -5.2577,-2.51834 -5.95637,-3.29035 -0.36358,-0.40176 -0.51754,-0.3027 -0.73521,0.47305 -0.4484,1.59808 -0.1345,2.98401 1.07223,4.73409 2.2499,3.26297 7.54911,6.90132 12.03718,8.26453 l 0.89384,0.2715 0.12983,0.58378 c 0.0714,0.32107 0.19223,0.92074 0.26848,1.33259 0.0763,0.41185 0.16665,0.84709 0.20087,0.96722 0.0839,0.29439 -0.11178,0.28477 -2.10253,-0.10339 -3.28886,-0.64128 -6.17601,-1.79313 -8.61986,-3.43897 -0.86683,-0.58378 -1.14629,-0.71733 -1.2299,-0.58777 -0.25023,0.38772 -0.38174,1.22676 -0.33097,2.11165 0.0959,1.67224 0.70202,2.66916 3.90171,6.41776 3.05367,3.57751 3.80908,4.24389 5.16636,4.55746 0.84185,0.19449 1.69836,0.10816 3.77718,-0.38068 3.43935,-0.80877 5.8622,-0.38574 10.0916,1.762 3.70772,1.88283 7.67085,4.76392 10.27936,7.47286 0.61034,0.63383 1.05799,1.19584 0.99842,1.25349 -0.0594,0.0575 -0.69767,0.55537 -1.4184,1.10642 l -1.31043,1.00192 -0.57699,-0.649 c -1.17498,-1.32161 -3.56571,-3.27692 -5.87058,-4.80138 -2.65063,-1.75314 -4.29016,-2.5921 -6.56059,-3.35709 -1.18486,-0.39922 -1.52892,-0.45972 -2.90413,-0.51065 -1.37827,-0.051 -1.70584,-0.0208 -2.81153,0.26004 -0.68833,0.17479 -1.92387,0.59485 -2.74565,0.93346 -2.05781,0.84791 -11.68718,4.86037 -13.97437,5.82298 -1.02962,0.43334 -2.26517,0.94275 -2.74565,1.13203 -3.13194,1.23376 -4.97651,2.55059 -5.80062,4.14103 -0.57094,1.10185 -0.64836,1.67241 -0.7331,5.40276 -0.0789,3.4728 -0.0879,3.5683 -0.38159,4.04073 -0.41385,0.66575 -1.14292,0.96895 -2.51852,1.04739 l -1.08346,0.0618 z m 77.26104,-8.4843 c 0.24409,-1.07743 0.3538,-1.40673 0.62453,-1.87455 0.46395,-0.80171 0.76114,-0.88189 3.61332,-0.97485 3.78501,-0.12337 7.53048,-0.42691 10.23379,-0.82936 1.02758,-0.15298 2.85316,-0.49987 2.91022,-0.55299 0.0985,-0.0916 -1.29012,-2.8142 -1.91209,-3.74897 -1.00377,-1.50856 -1.96309,-2.42997 -3.13028,-3.00657 -0.94968,-0.46915 -1.01113,-0.48193 -2.2923,-0.47683 -1.04801,0.004 -1.57095,0.0763 -2.56448,0.35348 -2.80443,0.78252 -7.32689,2.66964 -12.78021,5.3329 -1.81239,0.88512 -3.30785,1.60931 -3.32326,1.60931 -0.0698,0 -1.82107,-2.39743 -1.78075,-2.43775 0.41433,-0.41433 6.2862,-3.47041 9.48467,-4.93641 8.7332,-4.00279 11.86,-4.66364 14.88394,-3.14571 2.66834,1.33943 5.34182,4.5653 6.80901,8.21591 0.28859,0.71805 0.59063,1.30554 0.67119,1.30554 0.35179,0 3.91153,-1.03273 5.54325,-1.60817 3.04353,-1.07333 4.7542,-2.02801 6.17588,-3.44659 1.02534,-1.0231 1.62108,-1.79272 3.33275,-4.30541 2.16913,-3.18425 3.64402,-5.01775 5.86063,-7.28563 3.09606,-3.16767 5.95869,-5.43911 8.50985,-6.75239 l 0.92221,-0.47474 1.24585,0.80936 c 0.68521,0.44514 1.35685,0.86969 1.49252,0.94344 0.23144,0.12581 0.22086,0.14823 -0.17119,0.36292 -1.54298,0.84494 -3.37794,2.01703 -4.73512,3.02456 -1.91087,1.41858 -5.22518,4.6887 -6.77961,6.68923 -1.80703,2.32563 -5.08983,7.34946 -4.91628,7.52364 0.18324,0.1839 2.78295,0.17359 3.78287,-0.015 2.31757,-0.43711 4.90709,-1.77159 8.03754,-4.14205 l 1.70499,-1.29107 0.0888,1.18375 c 0.10873,1.4503 0.0357,1.94608 -0.37366,2.5368 -1.06984,1.54378 -5.81232,4.14278 -9.17799,5.02977 -1.27142,0.33507 -1.64889,0.37984 -3.30726,0.3923 -1.43573,0.0108 -2.05701,-0.037 -2.66568,-0.20525 l -0.79365,-0.21931 -2.38881,1.17903 c -5.90383,2.91392 -13.21527,4.62411 -22.73158,5.31705 -0.96098,0.07 -3.64586,0.16218 -5.96639,0.2049 l -4.21917,0.0777 z M 245.25173,328.3911 c -5.72138,-0.68645 -9.83564,-3.01195 -13.24202,-7.4848 -0.62894,-0.82586 -0.95962,-1.16275 -1.09861,-1.11926 -0.52752,0.16507 -3.24973,0.56265 -4.75412,0.69435 -0.92666,0.0811 -2.66765,0.12741 -3.86887,0.10286 -2.9514,-0.0603 -3.21655,-0.20709 -3.51465,-1.94547 -0.0847,-0.49419 -0.12829,-0.92433 -0.0968,-0.95585 0.0315,-0.0315 1.44345,-0.11749 3.13762,-0.19103 3.75566,-0.16304 6.87249,-0.54276 7.25324,-0.88367 0.11661,-0.10441 -1.30835,-3.01161 -2.0577,-4.19811 -0.54955,-0.87016 -1.47853,-1.77016 -2.16184,-2.09441 -1.23128,-0.58428 -3.07723,-0.49888 -5.49277,0.2541 -1.81511,0.56582 -2.44973,0.64799 -2.87128,0.37179 -0.40832,-0.26755 -0.82253,-1.10191 -0.85037,-1.71294 l -0.0224,-0.49188 0.93602,-0.41454 c 2.76247,-1.22343 5.53686,-1.94686 7.46634,-1.94686 1.95686,0 3.27432,0.52066 4.57909,1.80963 1.04792,1.03523 1.72248,2.11846 3.61571,5.80621 1.82744,3.55961 2.95617,5.31582 4.42669,6.88754 5.08546,5.43546 12.12086,5.91049 21.22173,1.4329 1.13258,-0.55723 2.11183,-1.01523 2.1761,-1.01777 0.0643,-0.003 0.16149,0.16384 0.21602,0.36977 0.0545,0.20592 0.23615,0.86884 0.40359,1.47315 l 0.30444,1.09875 -1.89328,0.9146 c -3.19985,1.54577 -6.11555,2.54946 -8.69501,2.99313 -1.16623,0.2006 -4.26116,0.35048 -5.11689,0.24781 z m 43.36291,-3.90232 c -0.89893,-0.30686 -1.44986,-0.67918 -2.16844,-1.46542 -1.17917,-1.2902 -1.97874,-3.36953 -2.27349,-5.91234 -0.0758,-0.65355 -0.14952,-1.20218 -0.16392,-1.21918 -0.0597,-0.0705 -2.93444,0.36079 -4.34836,0.65233 -4.22587,0.87135 -9.55154,2.94615 -13.61169,5.3029 -0.60818,0.35303 -1.13034,0.61731 -1.16035,0.5873 -0.03,-0.03 -0.22198,-0.69265 -0.42659,-1.47254 -0.34986,-1.3335 -0.35909,-1.42743 -0.15504,-1.57664 0.37756,-0.27608 5.03355,-2.59443 6.54456,-3.25872 4.53782,-1.99499 8.79606,-3.27254 13.12086,-3.93648 2.07739,-0.31893 3.8358,-0.51728 3.83882,-0.43304 0.0805,2.24539 0.28647,5.03183 0.42585,5.7603 0.4381,2.28973 1.36793,3.26939 2.87447,3.02854 1.68908,-0.27004 4.822,-3.14921 9.44403,-8.67911 1.17521,-1.40605 4.29419,-5.28918 5.11109,-6.36331 l 0.32243,-0.42395 1.0504,0.7831 c 0.57772,0.4307 1.12955,0.82781 1.22629,0.88247 0.19193,0.10844 -0.11688,0.5293 -4.0318,5.49471 -2.81256,3.56726 -3.68111,4.61038 -5.53759,6.6506 -4.26149,4.68326 -7.49784,6.48047 -10.08153,5.59848 z m 70.25479,-5.16517 c -9.63382,-6.81924 -16.8736,-13.98252 -22.23129,-21.9964 -1.26153,-1.88697 -2.82103,-4.41227 -3.27825,-5.3085 -0.47737,-0.93571 -0.19733,-1.67825 0.50126,-1.32914 0.16281,0.0814 0.80068,0.7657 1.41749,1.52075 5.61859,6.87784 16.68395,18.66295 23.83998,25.39068 2.44237,2.29619 2.67654,2.5994 2.29907,2.97688 -0.0824,0.0824 -0.24313,0.14976 -0.35725,0.14976 -0.11412,0 -1.10008,-0.63181 -2.19101,-1.40403 z m -113.3984,0.2766 c -1.95984,-0.32994 -3.46324,-1.26553 -4.20464,-2.61664 -0.43091,-0.78527 -0.44514,-0.85331 -0.44514,-2.12743 0,-1.26545 0.0177,-1.35211 0.46,-2.24644 0.48565,-0.9821 1.52506,-2.23097 2.78485,-3.34607 1.22825,-1.08718 4.30822,-3.05042 6.65865,-4.24438 2.51471,-1.2774 6.13983,-2.82393 6.24803,-2.66551 0.04,0.0586 0.45939,0.598 0.93194,1.19867 0.48018,0.61038 0.81049,1.13746 0.74881,1.19489 -0.0607,0.0565 -0.98086,0.4583 -2.0448,0.89285 -2.62471,1.07202 -6.80283,3.17617 -8.39571,4.22818 -1.51954,1.00357 -2.92928,2.32029 -3.3421,3.12157 -0.36331,0.70519 -0.38043,1.67279 -0.0401,2.26751 0.14673,0.2564 0.47626,0.53531 0.85983,0.72774 0.59109,0.29654 0.72708,0.31189 2.74355,0.30964 2.3345,-0.003 3.23381,-0.13981 5.84217,-0.89127 1.9087,-0.54989 3.7867,-1.29485 6.95007,-2.75692 1.40714,-0.65036 2.82815,-1.25798 3.15779,-1.35025 0.91726,-0.25675 1.37709,-0.0539 2.1124,0.93192 0.32753,0.43912 0.59552,0.8359 0.59552,0.88173 0,0.15895 -5.43882,2.86103 -7.39099,3.67194 -5.49723,2.28349 -10.96929,3.36724 -14.23011,2.81827 z m 18.59214,-13.47255 c -0.46195,-0.61673 -0.83992,-1.14627 -0.83992,-1.17675 0,-0.15232 1.96866,-1.25124 3.15184,-1.75939 3.92862,-1.68725 8.33754,-1.95861 16.13012,-0.99277 3.21915,0.39899 4.1115,0.46463 6.36491,0.46821 2.16184,0.003 2.90135,-0.0446 4.22245,-0.27402 1.9719,-0.3425 4.15118,-0.93254 6.20148,-1.67905 l 1.55709,-0.56693 1.09202,1.08357 c 0.60061,0.59596 1.09202,1.13092 1.09202,1.1888 0,0.14545 -3.31563,1.71505 -4.65408,2.2032 -3.30883,1.20678 -5.43346,1.63774 -8.4822,1.72053 -2.30648,0.0626 -4.17615,-0.0578 -7.37924,-0.47553 -3.213,-0.41897 -5.43918,-0.61015 -7.13612,-0.61281 -2.78847,-0.004 -5.99122,0.52357 -8.76087,1.44415 -0.91028,0.30257 -1.66958,0.55012 -1.68733,0.55012 -0.0177,0 -0.41022,-0.5046 -0.87217,-1.12133 z m -22.74723,-6.5084 c -0.88626,-0.47452 -1.65648,-0.90787 -1.71161,-0.963 -0.19879,-0.19878 1.63937,-3.04036 4.51269,-6.97609 0.86433,-1.18392 2.09318,-2.86875 2.73077,-3.74407 1.94319,-2.66772 2.50785,-4.14642 2.77266,-7.26082 0.25376,-2.98449 0.39437,-4.05208 0.68413,-5.19434 1.0522,-4.1479 4.02979,-7.24337 8.11379,-8.43502 0.87237,-0.25454 1.25838,-0.29063 3.05765,-0.28589 1.7872,0.005 2.25702,0.0507 3.55634,0.34832 2.77208,0.63493 3.94812,0.587 8.28038,-0.33742 1.7769,-0.37916 2.03215,-0.4085 1.98085,-0.22776 -0.0324,0.11412 -0.57119,1.45381 -1.19733,2.97709 -0.62613,1.52329 -1.13843,2.81899 -1.13843,2.87934 0,0.0932 1.44134,0.75983 5.03909,2.33047 l 0.73341,0.32018 -1.10781,0.77989 c -1.46009,1.02789 -3.75248,3.32158 -4.98642,4.98925 -3.11531,4.21034 -4.39944,8.209 -4.80036,14.9478 -0.16262,2.73329 -0.17728,2.82522 -0.46144,2.8932 -0.65362,0.15636 -0.749,-0.0318 -1.21976,-2.40584 -0.44154,-2.22669 -0.64663,-5.34381 -0.46555,-7.07569 0.49057,-4.69179 2.93679,-9.57538 6.41493,-12.80664 l 1.01707,-0.94487 -0.54959,-0.23359 c -0.30227,-0.12846 -1.12009,-0.47009 -1.81736,-0.75915 l -1.26778,-0.52558 0.55825,-1.33275 c 0.30703,-0.73301 0.66693,-1.57856 0.79977,-1.87901 0.13283,-0.30046 0.24152,-0.56306 0.24152,-0.58358 0,-0.0205 -0.49141,0.13555 -1.09202,0.34682 -1.49061,0.52431 -3.02823,0.59562 -5.01392,0.23254 -4.03391,-0.73761 -6.93777,0.0711 -8.98401,2.50204 -0.91231,1.08383 -1.54184,2.25771 -1.86783,3.48297 -0.30281,1.13812 -0.3588,1.60531 -0.51539,4.30006 -0.20086,3.45667 -0.58291,4.61429 -2.55443,7.73987 -1.18902,1.88503 -1.23971,1.95925 -4.00478,5.86357 -1.02086,1.44147 -2.36686,3.35877 -2.99111,4.26066 l -1.135,1.63981 z m -20.89497,-6.36441 c 1.05273,-2.68637 3.35354,-7.72225 4.58266,-10.03029 2.49771,-4.69021 4.44267,-7.3759 9.58042,-13.22904 1.80404,-2.05524 3.33184,-3.97046 3.99793,-5.01173 1.24114,-1.94021 2.2665,-4.50503 3.18532,-7.96771 1.53391,-5.78068 2.79562,-8.01351 5.60606,-9.92096 2.08872,-1.41761 4.07386,-2.01518 6.68401,-2.01204 1.70298,0.002 2.94755,0.26949 4.7354,1.01757 3.86357,1.6166 3.87762,1.61965 7.95911,1.72323 l 3.21662,0.0816 -1.87499,2.70475 c -1.03125,1.48761 -1.875,2.76322 -1.875,2.83469 0,0.0715 1.13004,0.983 2.5112,2.02562 l 2.51121,1.89567 -1.66879,0.5883 c -4.40484,1.55285 -6.34422,2.66005 -8.11639,4.63367 -1.85879,2.07009 -1.92039,2.12407 -2.37424,2.0805 -0.39577,-0.038 -0.41314,-0.0615 -0.40438,-0.54812 0.0185,-1.02906 1.50152,-3.57277 2.94399,-5.04964 0.89513,-0.91648 2.25854,-1.86833 3.24507,-2.26552 0.36625,-0.14746 0.71361,-0.30917 0.77189,-0.35935 0.0811,-0.0698 -1.51944,-1.29226 -2.95503,-2.25688 -0.0665,-0.0447 0.39291,-0.78299 1.02088,-1.64069 0.62797,-0.8577 1.14176,-1.58867 1.14176,-1.62439 0,-0.0357 -0.68797,-0.062 -1.52882,-0.0584 -1.74896,0.008 -2.02997,-0.0551 -4.33688,-0.96636 -0.92666,-0.36604 -2.11771,-0.7538 -2.64679,-0.8617 -3.64056,-0.74241 -7.05245,0.6638 -8.78545,3.62093 -0.48087,0.82054 -0.99577,2.35329 -1.59886,4.7594 -1.489,5.94061 -3.03418,8.78953 -7.86659,14.50397 -4.19096,4.95592 -4.62616,5.50948 -6.09233,7.74931 -2.00804,3.06763 -4.19885,7.15169 -6.60915,12.32061 l -0.8293,1.77843 h -1.99511 c -1.09731,0 -2.08577,0.0348 -2.19658,0.0773 -0.17305,0.0664 -0.16443,-0.0172 0.0611,-0.59281 z m 55.03471,-4.8198 c 9.9e-4,-0.0515 0.33104,-0.71137 0.73345,-1.46642 l 0.73165,-1.37283 7.2955,-0.0322 7.29551,-0.0322 0.5824,1.43186 c 0.32032,0.78753 0.5824,1.46191 0.5824,1.49862 0,0.0367 -3.87511,0.0668 -8.61135,0.0668 -4.73625,0 -8.61055,-0.0421 -8.60956,-0.0936 z m -83.23529,-6.52028 c -1.60172,-0.43212 -2.69701,-1.05751 -3.81918,-2.18069 -1.68392,-1.68545 -2.46294,-3.5861 -2.48256,-6.0569 -0.008,-1.0655 0.0456,-1.48134 0.28916,-2.22492 0.53828,-1.64322 1.7083,-3.13269 3.06011,-3.8956 0.42382,-0.23919 0.6964,-0.47719 0.6964,-0.60806 0,-1.01515 1.002,-2.69463 2.19451,-3.67827 2.08734,-1.72173 4.95747,-2.6487 8.94409,-2.88865 1.26094,-0.0759 1.46643,-0.11793 1.46643,-0.29994 0,-0.13859 -0.23427,-0.30877 -0.67849,-0.4929 -0.77174,-0.31986 -1.57794,-1.11429 -1.82546,-1.79881 -0.15454,-0.42735 -0.19713,-0.45342 -0.85737,-0.52472 -2.58355,-0.27898 -4.68048,-1.34154 -6.56711,-3.32767 -1.6856,-1.7745 -2.75787,-3.99181 -2.89452,-5.98549 -0.0659,-0.96188 -0.0722,-0.97678 -0.55098,-1.30858 -1.38513,-0.95989 -2.7238,-2.85997 -3.11162,-4.41656 -0.28023,-1.12474 -0.22479,-3.13967 0.11674,-4.24327 0.86941,-2.80935 2.94511,-4.88377 5.76061,-5.75706 1.42005,-0.44046 3.43436,-0.41611 4.82889,0.0584 0.97816,0.33282 2.27587,1.06181 2.88129,1.61856 0.26333,0.24218 0.40682,0.25903 1.93443,0.22727 1.11181,-0.0231 1.9422,0.0269 2.54584,0.15345 3.5627,0.7467 6.1235,3.15051 7.82196,7.34243 0.15686,0.38715 0.26273,0.47404 0.6641,0.54502 1.50111,0.26546 3.07352,1.50738 3.54472,2.79967 0.22212,0.60919 0.32544,0.75002 0.55027,0.75002 0.25924,0 0.28145,-0.0694 0.34974,-1.09202 0.15616,-2.3384 1.21598,-4.57521 3.0471,-6.43103 1.40947,-1.42848 3.59049,-2.57027 4.95733,-2.59522 0.45984,-0.008 0.55703,-0.0711 1.01473,-0.65521 0.65708,-0.8385 1.79392,-1.75167 2.75272,-2.21116 1.22408,-0.58661 2.19567,-0.79306 3.73002,-0.79257 3.61769,0.001 6.715,2.23862 7.84913,5.67013 0.81585,2.46849 0.47467,4.66091 -1.03586,6.65661 -0.63601,0.84028 -0.64355,0.86049 -0.48802,1.30797 0.27042,0.77805 0.18374,2.56322 -0.17806,3.66706 -0.75925,2.31638 -2.69136,4.47836 -4.85146,5.42864 -0.55037,0.24212 -0.58804,0.29216 -0.83704,1.11196 -0.14341,0.47214 -0.4356,1.12241 -0.6493,1.44505 -1.23617,1.86627 -3.73096,3.14864 -6.42391,3.30201 -1.1128,0.0634 -1.28016,0.0448 -1.54468,-0.17099 -0.52659,-0.42969 -0.28268,-0.70389 1.33358,-1.49921 1.27942,-0.62957 1.59069,-0.84903 2.52735,-1.78192 1.14094,-1.13635 1.71996,-2.08057 2.22582,-3.62972 0.26079,-0.79864 0.28244,-0.824 0.88917,-1.04218 1.38161,-0.49682 2.89123,-1.74756 3.53344,-2.92751 0.38703,-0.71111 0.70308,-1.96462 0.70566,-2.79874 0.001,-0.32894 -0.0843,-1.01503 -0.18955,-1.52464 l -0.19139,-0.92657 0.51613,-0.51613 c 0.28387,-0.28387 0.66484,-0.83332 0.8466,-1.22101 0.29184,-0.62247 0.33047,-0.85841 0.33047,-2.01825 0,-1.23264 -0.0252,-1.36459 -0.41019,-2.14627 -0.45693,-0.9278 -1.19958,-1.66436 -2.10926,-2.09196 -2.10382,-0.98891 -4.86823,-0.2036 -5.98373,1.69985 -0.28376,0.4842 -0.3696,0.54473 -0.77524,0.54666 -0.74383,0.004 -2.04172,0.32451 -2.89939,0.71704 -2.60783,1.1935 -4.34928,3.64369 -4.72619,6.64964 -0.12153,0.96916 -0.15957,1.05943 -0.68195,1.61789 -0.75398,0.80606 -1.27575,1.89387 -1.69608,3.53603 -0.22075,0.86245 -0.43656,1.44154 -0.57492,1.54272 -0.5662,0.41401 -0.90797,0.0408 -1.16596,-1.27325 -0.38742,-1.97326 -1.32612,-3.89089 -2.39234,-4.88719 -0.85943,-0.80307 -2.82747,-1.66493 -3.80181,-1.66493 -0.22027,0 -0.30184,-0.13688 -0.48515,-0.81406 -0.99957,-3.69271 -4.11382,-6.12532 -8.17886,-6.38868 -0.60397,-0.0391 -1.44006,-0.006 -1.90721,0.0752 l -0.8318,0.14485 -0.51464,-0.51464 c -0.28306,-0.28306 -0.88819,-0.69162 -1.34474,-0.90793 -0.73409,-0.3478 -0.95278,-0.39259 -1.89091,-0.3873 -1.38112,0.008 -2.29998,0.35607 -3.20991,1.21664 -1.52267,1.44008 -1.89462,3.53425 -0.98184,5.52802 0.35841,0.78286 1.19259,1.65729 1.90224,1.99403 l 0.50809,0.24109 0.0697,1.06642 c 0.15637,2.3913 1.44245,4.69996 3.46876,6.22683 1.21405,0.91482 2.50692,1.45228 4.16502,1.73147 l 1.30722,0.22011 0.41022,0.80648 c 0.27148,0.53374 0.76898,1.16953 1.47104,1.87995 1.25708,1.27207 2.05738,1.70898 3.99367,2.18028 1.37972,0.33584 1.62243,0.49634 1.62243,1.07291 0,0.47145 -0.37613,0.6929 -1.43935,0.84745 -1.22008,0.17736 -1.74634,0.34059 -2.69446,0.83577 -0.70607,0.36877 -1.98199,1.43601 -1.98127,1.65726 1.2e-4,0.0388 -0.69182,0.0535 -1.53766,0.0326 -4.41317,-0.10907 -8.04414,1.99696 -8.69781,5.04489 -0.11821,0.55119 -0.18957,0.64478 -0.69683,0.91388 -1.09358,0.58014 -2.04734,1.93588 -2.30032,3.26983 -0.15133,0.79796 0.0348,2.15624 0.40377,2.947 0.40921,0.87695 1.39625,1.80739 2.28669,2.15556 1.12058,0.43816 2.85567,0.43091 3.8083,-0.0159 0.38066,-0.17854 0.89225,-0.50035 1.13686,-0.71512 l 0.44475,-0.3905 0.67277,0.36166 c 1.1407,0.61318 1.97118,0.78927 3.46486,0.73465 1.12232,-0.041 1.44086,-0.10149 2.07038,-0.39287 0.99353,-0.45986 1.89938,-1.17572 2.61196,-2.06414 l 0.5863,-0.73099 1.27374,-0.0857 c 3.12695,-0.2103 5.46893,-1.15024 7.07727,-2.84044 0.5492,-0.57715 0.78244,-0.74031 1.01195,-0.70786 0.25578,0.0362 0.30386,0.12077 0.33768,0.59431 0.0308,0.43155 -0.0562,0.74501 -0.39824,1.43523 -1.36405,2.7522 -4.27812,4.67705 -7.09635,4.68738 -0.57395,0.002 -0.62144,0.0326 -1.64326,1.0544 -0.84733,0.84733 -1.25476,1.14863 -2.09222,1.54726 -0.572,0.27226 -1.34888,0.57071 -1.7264,0.66323 -0.93396,0.22886 -3.34684,0.20209 -4.36559,-0.0484 l -0.80873,-0.19888 -0.6889,0.4195 c -1.15434,0.70293 -2.12345,0.9655 -3.74656,1.01509 -1.14578,0.035 -1.62205,-0.007 -2.36161,-0.20608 z m 69.5195,-3.69884 c -0.96673,-0.67712 -0.98563,-2.92948 -0.0332,-3.96131 0.7045,-0.76326 1.96221,-0.92815 3.08647,-0.40465 1.10922,0.5165 1.44049,1.29088 0.97334,2.27533 -0.43371,0.91398 -2.44716,2.29437 -3.34659,2.29437 -0.21401,0 -0.52001,-0.0917 -0.67999,-0.20374 z m -38.38841,-3.72092 c -2.24639,-5.0045 -4.38038,-9.04758 -6.51139,-12.33653 -0.43565,-0.67238 -0.7921,-1.26383 -0.7921,-1.31433 0,-0.0505 0.32896,-0.41734 0.73102,-0.81521 l 0.73102,-0.72339 1.49879,1.78812 c 2.76312,3.29651 5.20225,6.78233 6.62821,9.47252 l 0.62364,1.17656 -1.14387,1.52021 c -0.62912,0.83612 -1.20873,1.62237 -1.28802,1.74723 -0.12702,0.20004 -0.18374,0.13882 -0.4773,-0.51518 z m 124.80711,-2.33361 c -0.82169,-1.14629 -1.0463,-1.54191 -0.92138,-1.62295 0.58666,-0.38057 8.7696,-4.42261 11.08538,-5.47573 6.78442,-3.08525 14.5319,-6.32976 20.56118,-8.61065 l 1.90323,-0.71999 v 2.02893 2.02894 l -1.59123,0.59382 c -4.75261,1.7736 -12.55752,4.9203 -14.00905,5.64802 -0.77947,0.39078 -0.9425,0.52536 -0.97476,0.80466 -0.0292,0.2528 0.0464,0.39109 0.30688,0.56161 0.80863,0.52927 4.84654,0.16231 10.50523,-0.95469 0.70862,-0.13988 1.34216,-0.25432 1.40787,-0.25432 0.0715,0 0.10539,0.61234 0.0844,1.52454 l -0.0351,1.52454 -1.62243,0.34055 c -3.82269,0.80238 -6.51795,1.0723 -12.23062,1.22486 -4.57779,0.12225 -5.16361,0.18952 -7.59737,0.87244 -1.22027,0.34241 -4.30504,1.39308 -5.11161,1.74102 -0.33174,0.1431 -0.61912,0.26018 -0.63864,0.26018 -0.0195,0 -0.52444,-0.6821 -1.12206,-1.51578 z m -149.80756,-0.25641 c -0.34664,-0.34664 -0.16039,-0.68562 0.75505,-1.37417 2.17799,-1.63818 4.79941,-2.97254 7.51934,-3.82753 1.81007,-0.56898 4.67951,-1.1922 4.81591,-1.04597 0.0487,0.0522 0.20065,0.49656 0.33767,0.98745 l 0.24913,0.89254 -2.13974,0.71859 c -1.17686,0.39523 -4.1841,1.41165 -6.68275,2.25873 -2.49865,0.84707 -4.57942,1.54012 -4.62392,1.54012 -0.0445,0 -0.14832,-0.0674 -0.23069,-0.14976 z m 140.54536,-11.18068 c -0.60843,-0.6667 -1.17564,-1.30187 -1.26044,-1.41149 -0.13011,-0.16817 -0.0254,-0.36313 0.67006,-1.24802 2.18478,-2.77971 6.86831,-9.63145 9.93023,-14.52736 1.55844,-2.49191 3.88094,-6.3775 4.27068,-7.14493 l 0.20598,-0.40561 h 2.00698 c 1.55822,0 1.99196,0.0349 1.9398,0.156 -0.037,0.0858 -0.4568,1.029 -0.93298,2.096 -2.28482,5.11966 -3.31578,8.73837 -3.3229,11.66345 -0.003,1.26587 0.037,1.58454 0.25884,2.05924 0.337,0.72104 0.70437,1.0982 1.34626,1.38214 2.04117,0.9029 5.65522,0.0803 15.7955,-3.59518 2.36812,-0.85836 4.85325,-1.74684 5.5225,-1.97439 l 1.21682,-0.41374 v 2.04106 2.04107 l -0.38303,0.0841 c -0.21067,0.0463 -2.58347,0.86089 -5.2729,1.81026 -10.53305,3.7182 -14.10274,4.53393 -17.22594,3.93636 -3.11224,-0.59547 -4.92295,-3.00902 -4.94468,-6.59093 -0.004,-0.67325 -0.0229,-0.71762 -0.30414,-0.71762 -0.2573,0 -0.648,0.54896 -2.75673,3.87338 -2.48639,3.91981 -3.9581,6.06917 -5.05242,7.37883 l -0.60124,0.71954 z M 253.7789,256.7766 c -0.62556,-0.28003 -0.85423,-0.74164 -0.83697,-1.68958 0.032,-1.75796 1.04206,-2.916 2.54358,-2.91625 0.88756,-1.6e-4 1.67807,0.35359 2.27764,1.01921 0.73144,0.812 0.61191,1.51917 -0.41333,2.44541 -1.05092,0.94944 -2.77118,1.49921 -3.57092,1.14121 z m -31.95156,-1.58955 -0.77278,-0.49774 0.43593,-0.95825 c 1.1481,-2.52373 2.55991,-4.72891 4.29208,-6.70398 1.16112,-1.32396 3.45677,-3.48336 3.93457,-3.70106 0.40179,-0.18307 0.72428,0.0716 0.6538,0.51632 -0.0278,0.17551 -1.39993,2.42515 -3.04915,4.99919 -4.40959,6.88235 -4.39804,6.86501 -4.56641,6.85369 -0.0854,-0.006 -0.50302,-0.23442 -0.92804,-0.50817 z m -14.4829,-3.44386 c -8.54399,-7.1677 -9.14317,-7.69444 -9.14317,-8.03773 0,-0.6651 0.47168,-0.58843 2.65101,0.43092 1.637,0.76569 3.12407,1.66917 4.78,2.90414 1.36597,1.01872 3.67553,3.18273 4.34734,4.07337 0.30521,0.40463 0.32809,0.49249 0.18225,0.69986 -0.23458,0.33354 -1.09031,1.27106 -1.16017,1.27106 -0.0319,0 -0.77768,-0.60373 -1.65726,-1.34162 z m 81.25923,-4.76359 c -0.83324,-0.50809 -1.02186,-2.07776 -0.41827,-3.48083 0.51932,-1.2072 1.42538,-1.72063 2.85522,-1.61795 1.5505,0.11135 2.884,1.00251 2.884,1.92735 0,0.37266 -0.11755,0.55518 -0.78002,1.21113 -0.93839,0.92916 -1.99381,1.64166 -2.90742,1.96277 -0.84638,0.29748 -1.14233,0.29703 -1.63351,-0.002 z"
       id="path1" /></g></svg>
