<?xml version="1.0" encoding="UTF-8" standalone="no"?>
<!-- Created with Inkscape (http://www.inkscape.org/) -->

<svg
   width="325.29611mm"
   height="76.708031mm"
   viewBox="0 0 325.29611 76.708031"
   version="1.1"
   id="svg1"
   xml:space="preserve"
   sodipodi:docname="logo-5.svg"
   inkscape:version="1.4.2 (f4327f4, 2025-05-13)"
   xmlns:inkscape="http://www.inkscape.org/namespaces/inkscape"
   xmlns:sodipodi="http://sodipodi.sourceforge.net/DTD/sodipodi-0.dtd"
   xmlns="http://www.w3.org/2000/svg"
   xmlns:svg="http://www.w3.org/2000/svg"><sodipodi:namedview
     id="namedview1"
     pagecolor="#ffffff"
     bordercolor="#000000"
     borderopacity="0.25"
     inkscape:showpageshadow="2"
     inkscape:pageopacity="0.0"
     inkscape:pagecheckerboard="0"
     inkscape:deskcolor="#d1d1d1"
     inkscape:document-units="mm"
     inkscape:zoom="0.48693448"
     inkscape:cx="1130.5422"
     inkscape:cy="284.43252"
     inkscape:window-width="1920"
     inkscape:window-height="991"
     inkscape:window-x="-9"
     inkscape:window-y="-9"
     inkscape:window-maximized="1"
     inkscape:current-layer="layer1" /><defs
     id="defs1" /><g
     inkscape:label="Capa 1"
     inkscape:groupmode="layer"
     id="layer1"
     transform="translate(100.20999,-10.312575)"><path
       style="fill:#ffffff;stroke-width:1.61874"
       d="m -71.703776,81.432554 v -5.587986 h 2.196615 c 1.595648,0 2.156049,0.173759 2.048341,0.634982 -0.08155,0.349267 -0.74505,0.705964 -1.47444,0.792672 -1.134477,0.134777 -1.326168,0.336807 -1.326168,1.397011 0,1.038356 0.175656,1.239323 1.083263,1.239323 0.842539,0 1.083263,0.225772 1.083263,1.016005 0,0.790214 -0.240724,1.016006 -1.083263,1.016006 -0.962899,0 -1.083263,0.169344 -1.083263,1.524 0,1.439328 0.08025,1.523999 1.444352,1.523999 1.203624,0 1.444349,0.169344 1.444349,1.015988 0,0.903111 -0.240725,1.016007 -2.166525,1.016007 h -2.166524 z m 19.498715,-0.03533 c 0,-5.470791 0.02113,-5.618937 0.778645,-5.460998 0.521985,0.10887 1.175192,1.167033 1.981675,3.210334 l 1.203032,3.048001 0.0044,-3.175008 c 0.0038,-2.834303 0.08181,-3.174988 0.72648,-3.174988 0.678406,0 0.722174,0.338649 0.722174,5.587986 0,5.025408 -0.06491,5.588006 -0.644673,5.588006 -0.431609,0 -1.05814,-1.13328 -1.895709,-3.429004 l -1.251035,-3.429004 -0.106764,3.429004 c -0.0938,3.012364 -0.192512,3.429004 -0.812447,3.429004 -0.657677,0 -0.705676,-0.382482 -0.705676,-5.623333 z m 21.183791,5.284665 c -0.132394,-0.18624 -0.240726,-2.700864 -0.240726,-5.588006 v -5.24932 h 2.166524 c 1.685074,0 2.166524,0.169344 2.166524,0.761989 0,0.532186 -0.381148,0.76201 -1.263806,0.76201 -1.107334,0 -1.263805,0.157247 -1.263805,1.269984 0,1.072453 0.168507,1.270003 1.083262,1.270003 0.842538,0 1.083262,0.225773 1.083262,1.016007 0,0.790214 -0.240724,1.016006 -1.083262,1.016006 -0.9629,0 -1.083262,0.169344 -1.083262,1.524 0,1.403039 0.100313,1.524 1.263805,1.524 1.023081,0 1.263806,0.193516 1.263806,1.015987 0,0.888998 -0.240725,1.016005 -1.925799,1.016005 -1.059189,0 -2.034125,-0.152447 -2.166523,-0.338668 z m 19.498714,0 c -0.132393,-0.18624 -0.240725,-2.700864 -0.240725,-5.588006 v -5.24932 h 1.9601888 c 2.2159017,0 3.0950341,0.828633 3.0950341,2.917265 0,0.726395 -0.2784751,1.753634 -0.6188329,2.282747 -0.5863016,0.911442 -0.576758,1.073778 0.1815458,3.087993 0.9821636,2.608839 0.9890759,2.887986 0.071512,2.887986 -0.503795,0 -0.9691425,-0.701567 -1.516302,-2.286008 -0.4341892,-1.257293 -0.9195451,-2.285992 -1.0785687,-2.285992 -0.1590249,0 -0.289135,1.028699 -0.289135,2.285992 0,1.878066 -0.1181321,2.286008 -0.6619941,2.286008 -0.364096,0 -0.770319,-0.152447 -0.902718,-0.338668 z m 2.8285168,-7.789324 c 0,-0.792383 -0.233275,-1.31929 -0.6319018,-1.427308 -0.4937163,-0.133824 -0.631903,0.178367 -0.631903,1.427308 0,1.248921 0.1381867,1.561055 0.631903,1.427289 0.3986268,-0.108106 0.6319018,-0.634906 0.6319018,-1.427289 z m 17.9000301,6.789483 c -1.3752806,-2.45973 -0.7819804,-9.125836 0.8926881,-10.029925 0.834919,-0.450759 2.426304,-0.375877 3.006804,0.141511 0.921897,0.821586 0.244096,1.827474 -1.120003,1.662124 -1.189692,-0.144191 -1.321361,-0.0192 -1.706909,1.624667 -0.232969,0.9931 -0.3102171,2.587487 -0.17463,3.604301 0.362455,2.718123 2.325629,3.779961 2.325629,1.257886 0,-0.542302 -0.243735,-0.986016 -0.541631,-0.986016 -0.300907,0 -0.541631,-0.451544 -0.541631,-1.015985 0,-0.822491 0.240724,-1.016007 1.263805,-1.016007 h 1.263806 v 2.739648 c 0,3.059462 -0.223882,3.356351 -2.530936,3.356351 -1.070057,0 -1.560291,-0.307066 -2.1369921,-1.338508 z m 21.2779441,-1.28742 c 0,-1.991424 -0.267469,-3.292683 -1.106947,-5.38535 -0.608819,-1.517683 -1.055665,-2.822206 -0.992989,-2.898969 0.06267,-0.0768 0.457176,-0.287654 0.876668,-0.468671 0.644133,-0.277959 0.873403,0.03052 1.474681,1.9848 l 0.711968,2.313944 0.664277,-2.072466 c 0.76097,-2.374119 0.979518,-2.651461 1.758105,-2.231136 0.479109,0.258663 0.403849,0.74494 -0.509047,3.28917 -0.764267,2.129991 -1.071279,3.717716 -1.071279,5.540122 0,2.386117 -0.05951,2.554482 -0.902719,2.554482 -0.846475,0 -0.902718,-0.163583 -0.902718,-2.625926 z M -89.505593,48.540174 c 5.88742,-11.106489 12.873436,-24.251249 15.524479,-29.210608 l 4.82008,-9.016991 H 77.962546 225.08612 L 209.64135,39.39556 194.19656,68.478565 46.993285,68.606232 -100.20999,68.7339 Z M 184.25262,59.87614 c 0.18613,-1.374354 -0.89997,-2.31957 -2.66526,-2.31957 -2.48107,0 -4.4561,-1.148679 -9.37821,-5.454298 -4.91656,-4.30078 -6.57049,-6.258776 -6.1313,-7.25852 0.41345,-0.941165 7.22754,-0.134208 9.04529,1.071282 0.80743,0.535431 1.60315,0.973536 1.76824,0.973536 0.53771,0 3.49428,-3.664069 3.85479,-4.777247 0.27188,-0.839501 0.0795,-1.996665 -0.85198,-5.12734 -1.36333,-4.581561 -2.53407,-6.078853 -5.19153,-6.639494 -0.98968,-0.2088 -1.79988,-0.725279 -2.10774,-1.343615 -0.49289,-0.990029 -0.52346,-0.985192 -2.12688,0.336806 -2.63572,2.173074 -3.68205,2.41415 -5.7972,1.335647 -5.91312,-3.015091 -7.40467,-3.647385 -10.42783,-4.420607 -2.23412,-0.571392 -5.24525,-0.850674 -9.11385,-0.84528 -6.37016,0.0095 -10.47218,0.547373 -19.13762,2.512262 -5.95515,1.350336 -7.19667,1.36679 -13.90187,0.18432 -9.93506,-1.752095 -34.416695,-0.673843 -36.365585,1.601684 -0.842876,0.984134 -0.487006,1.895519 0.953148,2.441087 1.060403,0.401722 2.906159,0.326956 7.312016,-0.296159 9.950452,-1.407303 30.168431,-0.392258 32.356191,1.624434 1.56135,1.439289 1.43321,2.249204 -0.80961,5.116685 -2.89642,3.70316 -4.55027,4.740844 -7.55587,4.740844 -2.82548,0 -3.34919,0.319084 -5.91806,3.605664 -2.783257,3.560831 -7.825887,7.693016 -10.193123,8.352747 -1.740589,0.485068 -2.074144,0.781056 -2.699523,2.395334 -0.392444,1.01305 -0.581611,2.026924 -0.420354,2.253063 0.161245,0.226156 1.628776,0.411187 3.261155,0.411187 2.901819,0 3.031946,-0.05415 5.836677,-2.426035 1.577777,-1.334323 4.087348,-3.277421 5.576848,-4.318002 l 2.70814,-1.89195 6.13849,-0.01959 6.13849,-0.01959 4.10786,-2.694297 c 7.0732,-4.63922 8.53511,-5.292517 11.77997,-5.264083 1.99641,0.01728 3.78101,0.409804 5.77742,1.27006 1.58876,0.684634 5.09651,2.196807 7.79495,3.360403 2.69843,1.163597 6.2439,2.446483 7.87881,2.850894 4.30168,1.064006 11.61053,3.862175 18.44898,7.063103 4.68395,2.192466 6.38185,2.768314 7.9404,2.692991 1.64329,-0.07948 2.00525,-0.263904 2.11553,-1.078233 z M -26.914227,55.400371 c 1.084192,-0.749876 2.58229,-2.076018 3.329105,-2.946969 1.121769,-1.308231 15.0716269,-26.471287 15.0716269,-27.186544 0,-0.122306 -2.3365409,-0.222299 -5.1923129,-0.222299 h -5.192313 l -5.301259,10.346592 c -3.049459,5.951692 -5.682559,10.591007 -6.198928,10.921996 -1.387166,0.88919 -2.596082,0.700626 -3.04317,-0.474644 -0.489989,-1.288069 -0.663792,-0.89854 5.215905,-11.689458 2.500084,-4.588358 4.545789,-8.513932 4.54601,-8.723481 2.2e-4,-0.209548 -2.193812,-0.381005 -4.875629,-0.381005 h -4.876029 l -5.397626,10.146682 c -5.788337,10.881138 -6.524696,12.897848 -5.814616,15.924785 0.555984,2.370067 2.540643,4.78512 4.256292,5.179315 0.748989,0.172032 1.605532,0.398265 1.90343,0.502637 0.297896,0.104444 2.579369,0.13939 5.069942,0.07777 4.093276,-0.101178 4.71769,-0.242957 6.499572,-1.475403 z m -38.466085,-2.617112 1.801001,-3.249294 6.319028,-0.179712 c 6.080975,-0.172992 6.397516,-0.233932 8.402433,-1.619001 2.158681,-1.491282 3.537296,-3.467903 6.046658,-8.66949 2.50807,-5.198919 2.677285,-9.15792 0.513741,-12.019641 -0.931854,-1.232563 -0.985788,-1.240435 -9.531823,-1.391826 l -8.594667,-0.152257 -7.684448,14.630264 c -4.226447,8.046643 -7.840486,14.916018 -8.031198,15.265267 -0.273242,0.500371 0.639544,0.635 4.305762,0.635 h 4.652512 z m 8.339857,-13.641696 c 0.144345,-0.349248 0.736301,-1.492243 1.315457,-2.540006 0.986395,-1.784486 1.176728,-1.904985 3.008649,-1.904985 1.790747,0 1.95467,0.09638 1.944154,1.142994 -0.02547,2.535149 -1.627682,3.936999 -4.49968,3.936999 -1.524069,0 -1.965519,-0.1584 -1.76858,-0.635002 z m 48.7129506,9.964933 c 4.2196055,-7.449483 4.4271795,-7.581579 4.4827654,-2.852927 0.016214,1.379732 0.1882918,2.152531 0.4767377,2.141107 0.2482474,-0.0095 2.2692466,-1.336589 4.491108,-2.948314 2.2218615,-1.611723 3.9363687,-2.689515 3.8100183,-2.395103 -0.1263475,0.294413 -1.7523814,3.335654 -3.6133989,6.758303 l -3.3836697,6.223007 H 2.8034832 7.6709098 L 15.844661,40.665563 24.018413,25.298576 18.600072,25.158418 13.18173,25.018259 8.6024631,28.854746 C 6.083868,30.964802 3.9578113,32.599221 3.8778934,32.486788 3.7979743,32.374275 3.6495179,31.396803 3.547984,30.314441 3.4464474,29.232059 3.2835467,27.603536 3.185976,26.695491 l -0.1774011,-1.651008 -4.04587,0.02075 -4.0458699,0.02075 -7.041203,13.228971 c -3.872661,7.275935 -7.58486,14.238929 -8.249334,15.473317 l -1.208128,2.244346 h 4.665601 4.665602 z m 30.7452924,3.878075 1.682458,-3.048001 h 3.035889 3.035888 L 29.4354,51.333563 c -0.405142,0.768345 -1.06255,1.968497 -1.460908,2.666994 -0.398356,0.698496 -0.727898,1.441459 -0.732314,1.651008 -0.0044,0.209549 2.096052,0.381004 4.667705,0.381004 h 4.675736 l 4.490841,-8.041285 c 2.469963,-4.4227 4.776305,-8.817887 5.125207,-9.767097 0.786067,-2.138552 0.82524,-6.334118 0.07811,-8.366706 -1.517186,-4.127615 -3.067304,-4.76279 -11.691462,-4.79061 l -6.908776,-0.02228 -7.877336,14.859014 c -4.332534,8.17244 -8.027408,15.144747 -8.210832,15.493995 -0.262374,0.499564 0.677107,0.635001 4.405228,0.635001 h 4.738725 z m 7.202713,-13.335013 c 0.144345,-0.34925 0.736301,-1.492243 1.315457,-2.539988 1.046072,-1.892449 1.070397,-1.905005 3.692191,-1.905005 3.108257,0 3.449409,0.518228 2.133998,3.241633 l -0.887938,1.83836 h -3.258078 c -2.50571,0 -3.197474,-0.146686 -2.99563,-0.635 z"
       id="path1" /></g></svg>
