<?xml version="1.0" encoding="UTF-8" standalone="no"?>
<!-- Created with Inkscape (http://www.inkscape.org/) -->

<svg
   width="180.60178mm"
   height="180.92575mm"
   viewBox="0 0 180.60178 180.92575"
   version="1.1"
   id="svg1"
   xml:space="preserve"
   inkscape:version="1.4.2 (f4327f4, 2025-05-13)"
   sodipodi:docname="logo-6.svg"
   xmlns:inkscape="http://www.inkscape.org/namespaces/inkscape"
   xmlns:sodipodi="http://sodipodi.sourceforge.net/DTD/sodipodi-0.dtd"
   xmlns="http://www.w3.org/2000/svg"
   xmlns:svg="http://www.w3.org/2000/svg"><sodipodi:namedview
     id="namedview1"
     pagecolor="#ffffff"
     bordercolor="#000000"
     borderopacity="0.25"
     inkscape:showpageshadow="2"
     inkscape:pageopacity="0.0"
     inkscape:pagecheckerboard="0"
     inkscape:deskcolor="#d1d1d1"
     inkscape:document-units="mm"
     inkscape:zoom="0.48693448"
     inkscape:cx="764.98998"
     inkscape:cy="631.5018"
     inkscape:window-width="1920"
     inkscape:window-height="991"
     inkscape:window-x="-9"
     inkscape:window-y="-9"
     inkscape:window-maximized="1"
     inkscape:current-layer="layer1" /><defs
     id="defs1" /><g
     inkscape:label="Capa 1"
     inkscape:groupmode="layer"
     id="layer1"
     transform="translate(27.717636,-33.323252)"><path
       style="fill:#ffffff;stroke-width:1.20654"
       d="M 49.881198,213.38313 C 36.203774,211.30406 24.406001,206.79936 13.228811,199.3883 -8.8092599,184.7759 -21.92227,164.48019 -26.542327,137.8324 -30.740361,113.61878 -23.525504,86.588682 -7.5689996,66.749781 4.3462064,51.935475 24.170068,39.669507 43.070931,35.41644 c 12.48507,-2.809386 26.47932,-2.790241 39.531863,0.05409 9.30779,2.028293 21.694036,7.275256 29.847676,12.643839 21.0329,13.84863 33.87498,33.087646 39.43596,59.079981 0.91723,4.28722 0.99978,5.67761 0.99767,16.80471 -0.002,11.64849 -0.0491,12.34802 -1.1805,17.59488 -5.15758,23.91911 -19.1337,44.69155 -38.90083,57.8176 -4.9683,3.29912 -13.649409,7.53973 -19.734388,9.64 -13.808917,4.76624 -29.785781,6.36869 -43.187184,4.33159 z m 20.856423,-11.93601 c 14.54763,-1.66075 27.963383,-6.98545 39.517019,-15.68427 4.5685,-3.43966 12.20883,-11.16786 15.82533,-16.00734 5.246,-7.02003 9.84113,-16.34534 12.05993,-24.47438 2.10082,-7.69677 2.39189,-10.33036 2.37565,-21.49489 -0.0176,-12.07537 -0.47877,-15.20802 -3.63457,-24.687198 C 129.33359,76.428655 111.26677,58.038121 88.786239,50.142549 81.165223,47.46591 75.985018,46.525561 67.29608,46.241491 43.158429,45.452349 24.58358,52.358896 8.2435588,68.198554 -7.3282135,83.293495 -14.570521,100.86141 -14.595671,123.60048 c -0.02107,19.04277 4.508101,33.14439 15.02915248,46.79348 C 16.01629,190.60975 37.563898,201.653 61.799145,201.84415 c 2.809241,0.0222 6.831552,-0.1565 8.938476,-0.39703 z M 54.98889,187.80022 c -5.394463,-0.56629 -10.853849,-1.84128 -10.853849,-2.53483 0,-0.23036 2.401043,-5.72972 5.335655,-12.22079 2.934625,-6.49105 7.100586,-15.77102 9.257703,-20.62214 2.157116,-4.85114 4.018932,-8.82556 4.137366,-8.83206 0.118362,-0.006 0.489711,0.61066 0.82507,1.3715 0.335358,0.76083 1.553773,3.39448 2.707577,5.85256 1.153805,2.45808 4.28664,9.44924 6.961846,15.53591 2.675206,6.08668 5.661555,12.85033 6.63632,15.03033 1.38896,3.10633 1.65043,4.03896 1.208895,4.31186 -0.923173,0.57055 -6.776182,1.70241 -11.106318,2.14773 -4.691483,0.48249 -10.273273,0.46769 -15.110265,-0.0401 z M 31.560758,180.14303 C 15.056468,170.75489 3.5727223,155.43897 -0.61361504,137.23196 -1.7038141,132.49051 -2.1381283,121.43003 -1.4424372,116.12469 c 0.55267117,-4.21465 2.5584078,-11.50365 3.0200526,-10.9751 0.1604798,0.18374 1.975789,4.06907 4.0340222,8.63407 2.0582333,4.56502 4.1751238,9.25771 4.7042024,10.42822 0.931177,2.06011 4.169917,9.29239 5.718279,12.76924 1.741721,3.91103 7.447683,16.83572 8.737865,19.79232 4.038569,9.25483 9.388571,21.32355 10.271447,23.1707 0.552427,1.15581 1.004422,2.16138 1.004422,2.23462 0,0.39654 -1.043213,-0.0767 -4.487095,-2.03573 z m 58.543548,1.91581 c 0,-0.43827 7.9546,-19.0212 12.533624,-29.28007 13.07069,-29.28372 20.21806,-45.34741 20.83581,-46.82841 0.38117,-0.91383 0.7781,-1.57646 0.88204,-1.4725 0.10401,0.104 0.66527,2.09663 1.24736,4.42817 3.5299,14.13888 2.0455,29.00666 -4.26643,42.73284 -4.98178,10.83359 -16.10695,22.318 -28.291554,29.20515 -2.715903,1.53512 -2.94085,1.62804 -2.94085,1.21482 z M 40.178837,153.04909 c -0.123599,-0.40969 -1.598403,-3.71373 -3.277343,-7.34232 -3.167741,-6.8462 -11.765666,-26.19296 -21.059729,-47.387854 L 10.46024,86.046474 12.255757,83.719151 c 4.079105,-5.287274 14.674605,-14.599116 16.820918,-14.783041 0.705634,-0.06045 5.285542,9.725312 15.909629,33.9937 2.869556,6.55488 5.94823,13.50192 6.841481,15.43787 l 1.624091,3.51991 9.281338,-0.11475 9.281327,-0.11474 1.775946,-3.61795 c 2.199056,-4.47988 8.651897,-18.791967 12.569938,-27.879499 1.614921,-3.74565 3.282909,-7.576422 3.706647,-8.512832 0.423725,-0.936409 1.875497,-4.240453 3.226137,-7.342319 1.350652,-3.101863 2.680913,-5.639744 2.956137,-5.639744 0.733385,0 5.981334,3.79067 9.222334,6.661432 2.92126,2.587553 6.03098,5.904024 8.3827,8.940047 l 1.36961,1.768139 -2.29537,5.25495 c -3.56918,8.171211 -8.27866,18.845146 -15.370562,34.837016 -3.581693,8.07654 -7.76866,17.55477 -9.304375,21.0627 -1.535723,3.50795 -2.961337,6.43447 -3.168054,6.50338 -0.206717,0.0689 -0.676532,-0.59855 -1.044045,-1.48322 -3.178226,-7.65053 -11.476896,-25.87723 -11.908356,-26.15478 -0.299379,-0.19258 -4.566641,-0.30307 -9.482795,-0.24552 l -8.938463,0.1046 -2.34144,4.68206 c -1.287791,2.57513 -4.137958,8.84803 -6.333708,13.93975 -2.19575,5.09173 -4.136497,9.25771 -4.312773,9.25771 -0.176276,0 -0.421626,-0.33519 -0.545212,-0.74487 z M 61.822842,101.53458 C 58.643181,95.113615 44.135041,62.89853 44.135041,62.25912 c 0,-0.920379 7.973145,-2.382427 15.197558,-2.786801 5.847314,-0.327293 14.039012,0.354851 18.759513,1.562151 1.769659,0.452603 3.308821,0.914167 3.420342,1.025699 0.111484,0.111532 -1.159922,3.319361 -2.825457,7.128506 -4.585898,10.488173 -15.293008,34.416385 -15.487044,34.610425 -0.09411,0.0941 -0.713766,-0.92497 -1.377111,-2.26452 z"
       id="path1" /></g></svg>
