<?xml version="1.0" encoding="UTF-8" standalone="no"?>
<!-- Created with Inkscape (http://www.inkscape.org/) -->

<svg
   width="202.69113mm"
   height="203.23167mm"
   viewBox="0 0 202.69113 203.23167"
   version="1.1"
   id="svg1"
   xml:space="preserve"
   inkscape:version="1.4.2 (f4327f4, 2025-05-13)"
   sodipodi:docname="logo-4.svg"
   xmlns:inkscape="http://www.inkscape.org/namespaces/inkscape"
   xmlns:sodipodi="http://sodipodi.sourceforge.net/DTD/sodipodi-0.dtd"
   xmlns="http://www.w3.org/2000/svg"
   xmlns:svg="http://www.w3.org/2000/svg"><sodipodi:namedview
     id="namedview1"
     pagecolor="#ffffff"
     bordercolor="#000000"
     borderopacity="0.25"
     inkscape:showpageshadow="2"
     inkscape:pageopacity="0.0"
     inkscape:pagecheckerboard="0"
     inkscape:deskcolor="#d1d1d1"
     inkscape:document-units="mm"
     inkscape:zoom="0.34431467"
     inkscape:cx="649.11552"
     inkscape:cy="649.11552"
     inkscape:window-width="1920"
     inkscape:window-height="991"
     inkscape:window-x="-9"
     inkscape:window-y="-9"
     inkscape:window-maximized="1"
     inkscape:current-layer="layer1" /><defs
     id="defs1" /><g
     inkscape:label="Capa 1"
     inkscape:groupmode="layer"
     id="layer1"
     transform="translate(-41.519234,73.896387)"><path
       style="fill:#ffffff;stroke-width:3.24609"
       d="M 41.519234,112.51022 V 95.890101 l 3.650164,0.264232 3.650164,0.264232 0.250923,6.656175 0.250923,6.65617 h 8.123049 8.12305 v -6.92027 -6.920279 l 3.650164,0.264231 3.650164,0.264232 v 16.318396 16.31835 H 69.4324 65.996932 l -0.429425,-6.8709 -0.429425,-6.87087 h -7.729753 -7.729754 l -0.429425,6.87087 -0.429425,6.8709 -3.650164,0.0376 -3.650164,0.0376 z m 45.090212,15.73604 c -1.889485,-0.69743 -4.305031,-2.27161 -5.367866,-3.49825 -1.822517,-2.10333 -1.93243,-2.97722 -1.93243,-15.36254 V 96.253144 h 3.435435 3.435435 v 10.475486 c 0,11.75014 0.928969,15.62759 4.026187,16.80515 3.861035,1.46795 7.929037,0.94445 10.184053,-1.31058 2.03797,-2.03796 2.10815,-2.50923 2.10815,-14.16149 V 96.008356 l 3.65013,0.204828 3.65016,0.204829 -0.002,12.608687 c -0.002,11.43537 -0.16944,12.83401 -1.79496,15.03009 -0.9858,1.33174 -2.89531,2.96144 -4.24331,3.62153 -3.61378,1.76954 -13.046075,2.08178 -17.148422,0.56764 z m 25.391824,-0.05 c 0.0325,-0.4724 3.24568,-7.81564 7.14325,-16.31839 l 7.08658,-15.459507 3.58914,-0.09284 c 1.97404,-0.05096 3.93591,0.335418 4.35973,0.858883 0.64808,0.800398 14.69696,31.114624 14.69696,31.712654 0,0.11069 -1.77541,0.17139 -3.94537,0.13536 -3.86073,-0.0642 -3.98279,-0.15224 -5.69207,-4.10111 l -1.74677,-4.03525 h -7.51301 -7.51301 l -1.63414,3.98185 c -1.56689,3.81811 -1.78331,3.98591 -5.26104,4.07959 -1.99482,0.0539 -3.60144,-0.2889 -3.57025,-0.76111 z m 22.89086,-13.52708 c -2.87711,-7.23768 -4.57353,-10.94831 -5.00567,-10.94929 -0.28891,-6.5e-4 -1.31402,2.02786 -2.27843,4.50781 -0.96445,2.47999 -2.02563,5.1854 -2.35826,6.01206 -0.5372,1.33505 -0.01,1.503 4.73219,1.503 3.92458,0 5.22399,-0.28403 4.91017,-1.07358 z m 21.18505,13.52708 c -0.17106,-0.4724 -2.60428,-7.23593 -5.4074,-15.03009 -2.80314,-7.79419 -5.36975,-14.870783 -5.70357,-15.72584 -0.54208,-1.388353 -0.16621,-1.52615 3.51495,-1.288309 l 4.12193,0.26618 4.03508,12.453489 c 2.21929,6.84942 4.2567,11.87379 4.52755,11.16519 0.27072,-0.70856 1.50207,-5.15316 2.73594,-9.87687 3.95925,-15.157494 3.39047,-14.171234 8.17268,-14.171234 h 4.16921 l 3.49393,11.082154 c 1.92163,6.09518 3.4939,11.4832 3.4939,11.97337 0,0.49015 0.32298,1.09078 0.71752,1.33466 0.39463,0.24378 2.36413,-5.08286 4.37667,-11.83722 l 3.65918,-12.280683 3.84331,-0.145425 c 3.31235,-0.125299 3.7767,0.06362 3.36133,1.366899 -0.26521,0.831715 -2.72616,8.229489 -5.46905,16.439499 l -4.98707,14.92727 -4.60114,0.0747 -4.60116,0.0746 -3.51769,-11.77308 c -1.93471,-6.47525 -3.71445,-11.77672 -3.95494,-11.78111 -0.24054,-0.003 -1.32694,3.3738 -2.41431,7.50708 -1.08735,4.13327 -2.53247,9.44748 -3.2114,11.80933 l -1.23439,4.29433 h -4.40513 c -2.42282,0 -4.54499,-0.38649 -4.71593,-0.85885 z m 59.30481,0.3857 c -10.52658,-0.82071 -14.81227,-6.21763 -13.90573,-17.51127 0.88596,-11.03693 5.16359,-14.219785 19.46959,-14.486744 l 8.87378,-0.165551 0.31746,2.791308 0.31747,2.791287 h -8.19098 c -7.55148,0 -8.3556,0.16457 -10.29913,2.10815 -1.15945,1.15943 -2.10811,2.89862 -2.10811,3.86485 0,1.67044 0.49759,1.75675 10.12549,1.75675 h 10.12547 l -0.0337,2.36189 -0.0338,2.36186 -10.30634,0.42942 -10.30634,0.42946 0.26196,2.14712 c 0.14413,1.18097 1.22842,3.01676 2.40978,4.0796 1.90323,1.71237 3.06015,1.93246 10.15863,1.93246 h 8.01081 l -0.14024,2.79127 c -0.13861,2.75591 -0.19444,2.79133 -4.40852,2.79133 -2.3475,0 -6.99912,-0.21295 -10.33691,-0.47316 z m 24.73018,0.27267 -3.66893,-0.32968 0.2334,-16.05338 0.23339,-16.053337 3.65017,-0.119131 3.65016,-0.119132 v 16.65232 c 0,9.1588 -0.0968,16.58483 -0.21457,16.50231 -0.11816,-0.0825 -1.86572,-0.29832 -3.88366,-0.47974 z M 78.879693,77.757537 c -3.494157,-1.245493 -8.882831,-5.041797 -12.102497,-8.52615 -3.196199,-3.458937 -6.676884,-8.428312 -6.22201,-8.883155 0.508013,-0.508045 53.844394,-2.332607 58.691004,-2.007739 l 4.29432,0.287928 -11.38437,7.553589 C 93.804638,78.358388 87.104146,80.689243 78.879693,77.757601 Z M 188.9022,75.476119 c -7.13416,-3.691779 -26.28349,-16.047893 -26.28349,-16.959428 0,-0.56641 27.01422,0.01298 51.2741,1.098412 l 12.19596,0.546025 -2.42834,3.527917 c -3.45933,5.025791 -10.64185,11.504923 -14.89345,13.434887 -6.14147,2.787905 -12.2764,2.278983 -19.86478,-1.647813 z M 69.643428,52.113291 C 60.667663,49.997878 50.515223,41.999413 45.996827,33.483629 c -3.290595,-6.201792 -4.87855,-14.156157 -4.17324,-20.904428 0.860896,-8.2363386 0.642239,-8.1910133 11.295422,-2.341515 33.715164,18.512435 70.850931,40.610927 70.850931,42.161455 0,0.906763 -50.391276,0.641622 -54.326512,-0.28598 z m 93.768982,-0.857909 c 4.96437,-4.132696 47.86656,-29.510315 71.51948,-42.3053754 l 7.46917,-4.0404407 0.89994,3.2406949 c 1.13165,4.0750552 1.13132,11.5440492 -7.5e-4,16.4545762 -3.01792,13.090553 -14.44006,24.512701 -27.53061,27.530592 -2.0885,0.481493 -15.05368,0.864953 -29.10282,0.860733 l -25.33642,-0.0065 z M 114.09302,38.317405 C 98.550648,29.903483 83.320215,20.513678 74.737129,14.053874 61.303669,3.9435414 56.549316,-3.7296289 56.549316,-15.299952 c 0,-6.435871 0.261635,-7.459782 3.620689,-14.171215 3.45251,-6.898053 10.762932,-17.111023 12.248019,-17.111023 0.623575,0 8.935157,10.890245 17.370575,22.759832 5.284603,7.436017 16.446291,25.3482505 22.745331,36.50161 5.70594,10.103182 16.58918,31.223928 16.58918,32.194088 0,1.237539 -3.26259,-0.185676 -15.03009,-6.555935 z m 45.18517,1.201281 c 5.71139,-12.736637 18.05056,-34.5219762 29.68751,-52.414687 8.77158,-13.487023 23.43411,-33.686189 24.4527,-33.686189 1.05881,0 6.94069,7.380996 10.36399,13.005492 6.0042,9.864999 7.36534,19.707574 3.98714,28.8317893 -3.34309,9.0293319 -16.72636,20.4194747 -39.94919,33.9996447 -12.3406,7.216488 -28.96301,16.061241 -30.18475,16.061241 -0.54131,0 0.17237,-2.518512 1.6426,-5.797291 z m -29.94068,-9.87692 c -13.6925,-21.025619 -25.05355,-42.5843 -29.985043,-56.899573 -1.98885,-5.773263 -2.369908,-8.311527 -2.385233,-15.888935 -0.01625,-8.201874 0.196714,-9.428786 2.356372,-13.556401 4.446784,-8.498723 12.377444,-14.366393 21.640324,-16.011054 1.88948,-0.335487 4.30701,-0.819226 5.37224,-1.074975 1.6655,-0.39986 2.23195,0.179866 4.04349,4.13823 5.00759,10.941954 8.41423,30.062626 9.46571,53.128905 0.73114,16.03897633 -1.42971,56.684844 -3.01354,56.684844 -0.35348,0 -3.72591,-4.734455 -7.49432,-10.521041 z m 18.34233,5.153177 c -1.19193,-11.747239 -1.59793,-58.726912 -0.58502,-67.701399 1.94266,-17.21256 4.60212,-28.484689 8.85501,-37.532394 1.42933,-3.040717 2.10568,-3.669039 3.57188,-3.318163 0.9948,0.238068 3.35464,0.707329 5.24415,1.042816 9.27798,1.647342 17.88986,8.034838 21.94598,16.277499 1.83079,3.720494 2.09977,5.435955 2.08369,13.289956 -0.0227,10.344944 -1.90882,17.103619 -8.99527,32.207306 -6.98915,14.8962669 -28.80856,51.102243 -30.79664,51.102243 -0.42851,0 -1.0242,-2.415546 -1.32378,-5.367864 z"
       id="path4" /></g></svg>
