<?xml version="1.0" encoding="UTF-8" standalone="no"?>
<!-- Created with Inkscape (http://www.inkscape.org/) -->

<svg
   width="161.12604mm"
   height="112.05682mm"
   viewBox="0 0 161.12604 112.05682"
   version="1.1"
   id="svg1"
   xml:space="preserve"
   inkscape:version="1.4.2 (f4327f4, 2025-05-13)"
   sodipodi:docname="logo-3.svg"
   xmlns:inkscape="http://www.inkscape.org/namespaces/inkscape"
   xmlns:sodipodi="http://sodipodi.sourceforge.net/DTD/sodipodi-0.dtd"
   xmlns="http://www.w3.org/2000/svg"
   xmlns:svg="http://www.w3.org/2000/svg"><sodipodi:namedview
     id="namedview1"
     pagecolor="#ffffff"
     bordercolor="#000000"
     borderopacity="0.25"
     inkscape:showpageshadow="2"
     inkscape:pageopacity="0.0"
     inkscape:pagecheckerboard="0"
     inkscape:deskcolor="#d1d1d1"
     inkscape:document-units="mm"
     inkscape:zoom="0.68862935"
     inkscape:cx="304.22752"
     inkscape:cy="215.64576"
     inkscape:window-width="1920"
     inkscape:window-height="991"
     inkscape:window-x="-9"
     inkscape:window-y="-9"
     inkscape:window-maximized="1"
     inkscape:current-layer="layer1" /><defs
     id="defs1" /><g
     inkscape:label="Capa 1"
     inkscape:groupmode="layer"
     id="layer1"
     transform="translate(-24.611466,-91.589383)"><path
       style="fill:#ffffff"
       d="m 101.33542,203.57543 c -0.50933,-0.0596 -2.044858,-0.23884 -3.412297,-0.39824 -4.85641,-0.56608 -11.121496,-2.40744 -16.051195,-4.71758 -9.69897,-4.54509 -18.795999,-12.92789 -24.222835,-22.32105 -0.856584,-1.48264 -1.557426,-2.81668 -1.557426,-2.96453 0,-0.18107 16.149978,-0.2692 49.477473,-0.26998 27.21261,-6.4e-4 49.44667,0.0589 49.40904,0.13229 -3.00689,5.86383 -6.14699,10.20936 -10.54698,14.5958 -8.21377,8.18847 -18.68472,13.50288 -30.39947,15.42891 -2.41996,0.39786 -10.79391,0.73713 -12.69631,0.51438 z m -73.810881,-34.6601 c -1.209807,-0.526 -1.809393,-1.09239 -2.417277,-2.28343 -0.477225,-0.93504 -0.500736,-1.83323 -0.495201,-18.91771 0.0055,-17.04802 0.03069,-17.99087 0.508396,-19.04304 0.316219,-0.6965 0.92009,-1.38328 1.628498,-1.85209 l 1.125913,-0.7451 77.151872,-0.0679 77.15187,-0.0679 1.182,0.59708 c 0.65009,0.32839 1.45085,1.00164 1.77944,1.4961 l 0.59745,0.89903 -9.9e-4,18.68014 c -9.4e-4,17.86243 -0.0229,18.71611 -0.50191,19.50162 -0.27551,0.45181 -0.95967,1.10665 -1.52036,1.45521 l -1.01945,0.63374 -77.12604,0.0567 c -68.258059,0.0502 -77.231613,0.0109 -78.044211,-0.34246 z M 39.6875,150.22101 v -9.85191 l 3.945108,9.78576 3.945107,9.78577 5.447601,0.0715 5.447601,0.0715 v -12.41235 -12.41234 l -3.439584,0.0373 -3.439583,0.0373 -0.0123,9.39314 -0.0123,9.39313 -3.771661,-9.39271 -3.77166,-9.3927 h -5.608714 -5.608713 l -3.3e-5,12.36927 -3.3e-5,12.36927 h 3.439584 3.439583 z m 30.691456,-2.51736 -2.11e-4,-12.36927 h -3.505518 -3.505519 l -0.0052,12.17083 c -0.0029,6.69396 0.03391,12.26013 0.08176,12.36927 0.04785,0.10914 1.627792,0.19844 3.510975,0.19844 h 3.423969 z m 22.1226,11.97836 c 1.690744,-0.5021 3.374881,-1.9513 4.269213,-3.67366 0.608103,-1.17112 0.707344,-1.68918 0.716564,-3.74064 0.0095,-2.10618 -0.07456,-2.54318 -0.72736,-3.78306 -0.862609,-1.63837 -2.448748,-2.78084 -4.459445,-3.21206 -0.720449,-0.15451 -3.447172,-0.28092 -6.059385,-0.28092 h -4.749476 v -2.11667 -2.11667 l 6.945312,-3.1e-4 6.945313,-3.1e-4 v -2.71166 -2.71167 l -8.07752,0.0279 c -7.494619,0.0259 -8.162882,0.0664 -9.260417,0.56092 -2.488487,1.12126 -3.734826,3.49182 -3.585409,6.81949 0.122855,2.7361 0.606812,4.03895 2.031959,5.4702 1.80133,1.80905 2.923027,2.07043 8.885242,2.07043 h 4.84677 v 2.11666 2.11667 h -7.540625 -7.540625 v 2.77812 2.77813 h 8.021769 c 6.305741,0 8.303365,-0.0836 9.33812,-0.39091 z m 26.440544,-0.31439 c 3.4608,-1.85296 5.01703,-6.31988 3.55922,-10.21621 -0.62841,-1.67958 -1.5089,-2.58975 -3.30653,-3.41795 -1.22206,-0.56303 -1.74148,-0.616 -6.81302,-0.6948 l -5.4901,-0.0853 v -2.09751 -2.09751 h 7.02071 7.02072 l -0.0754,-2.71198 -0.0754,-2.71197 -8.05162,0.0485 c -9.00846,0.0543 -9.65238,0.1603 -11.11891,1.83058 -1.33122,1.51618 -1.675726,2.60964 -1.667009,5.29105 0.01198,3.68503 0.983309,5.53814 3.639619,6.94369 1.27523,0.67476 1.51845,0.70482 6.74688,0.8337 l 5.42396,0.13371 v 1.98437 1.98438 l -7.60677,0.0702 -7.60677,0.0702 v 2.78748 2.78747 l 8.6651,-0.0795 c 8.30001,-0.0762 8.7102,-0.1037 9.73533,-0.65256 z m 11.6764,-1.47751 0.78043,-2.18282 h 5.2445 5.2445 l 0.79255,2.18282 0.79256,2.18281 h 3.53089 3.53089 l -0.27855,-0.7276 c -0.1532,-0.40019 -2.00738,-5.60917 -4.1204,-11.57553 -2.11302,-5.96635 -3.99044,-11.2051 -4.17204,-11.64166 l -0.33018,-0.79375 h -4.97936 -4.97936 l -3.78593,10.58333 c -2.08226,5.82083 -4.07942,11.38701 -4.43813,12.36927 l -0.65219,1.78594 h 3.51969 3.5197 z m 2.78427,-7.91791 c 0.0684,-0.19268 0.81894,-2.35761 1.66778,-4.81095 l 1.54335,-4.46063 1.53747,4.32834 c 0.84561,2.38058 1.56975,4.47931 1.60919,4.66383 0.0536,0.25072 -0.7564,0.37268 -3.20524,0.48262 -2.65227,0.11906 -3.25325,0.0803 -3.15255,-0.20321 z m 25.88483,0.24499 0.008,-9.85573 2.25583,5.55625 c 1.24071,3.05594 3.03511,7.49102 3.98756,9.85573 l 1.73173,4.29948 h 5.39671 5.39672 l -0.002,-12.36927 -0.002,-12.36927 -2.0488,-0.0867 c -1.12685,-0.0477 -2.67389,-0.009 -3.43787,0.0852 l -1.38906,0.17189 v 9.30643 9.30643 l -3.72174,-9.25484 c -2.04695,-5.09016 -3.77767,-9.31078 -3.84605,-9.37915 -0.0684,-0.0684 -2.6203,-0.12992 -5.67096,-0.13678 l -5.54665,-0.0125 -1e-5,12.36927 -1e-5,12.36927 h 3.43958 3.43959 z M 56.091667,122.1331 c 0,-0.82154 4.199965,-7.38131 6.624559,-10.34664 1.852429,-2.26557 6.698322,-6.99282 8.853566,-8.6368 4.505607,-3.436804 10.540111,-6.75292 15.308117,-8.412207 11.666032,-4.05983 24.302611,-4.196712 35.875341,-0.388609 12.81911,4.218234 23.42994,12.799666 30.46164,24.635636 1.00702,1.69504 1.83094,3.15016 1.83094,3.2336 0,0.0834 -22.26468,0.15282 -49.47708,0.15418 -29.676416,0.001 -49.477083,-0.0942 -49.477083,-0.23916 z"
       id="path1" /></g></svg>
